<mxfile host="app.diagrams.net" modified="2024-01-11T19:44:00.995Z" agent="Mozilla/5.0 (Windows NT 10.0; Win64; x64) AppleWebKit/537.36 (KHTML, like Gecko) Chrome/120.0.0.0 Safari/537.36" etag="AZZynzTp3VFJqDGzp9Cp" version="22.1.18" type="github" pages="3">
  <diagram name="Page-1" id="2c0d36ab-eaac-3732-788b-9136903baeff">
    <mxGraphModel dx="2248" dy="1015" grid="1" gridSize="10" guides="1" tooltips="1" connect="1" arrows="1" fold="1" page="1" pageScale="1.5" pageWidth="1169" pageHeight="827" background="none" math="0" shadow="0">
      <root>
        <mxCell id="0" />
        <mxCell id="1" parent="0" />
        <mxCell id="123" value="" style="fillColor=#AE4132;strokeColor=none;opacity=30;" parent="1" vertex="1">
          <mxGeometry x="747" y="175.50000000000003" width="210" height="99.99999999999994" as="geometry" />
        </mxCell>
        <mxCell id="122" value="" style="fillColor=#10739E;strokeColor=none;opacity=30;" parent="1" vertex="1">
          <mxGeometry x="97" y="325.5" width="1470" height="99.99999999999994" as="geometry" />
        </mxCell>
        <mxCell id="121" value="" style="fillColor=#F2931E;strokeColor=none;opacity=30;" parent="1" vertex="1">
          <mxGeometry x="1557" y="705.5" width="150" height="270" as="geometry" />
        </mxCell>
        <mxCell id="120" value="" style="fillColor=#F2931E;strokeColor=none;opacity=30;" parent="1" vertex="1">
          <mxGeometry x="967" y="445.5" width="150" height="90" as="geometry" />
        </mxCell>
        <mxCell id="119" value="" style="fillColor=#F2931E;strokeColor=none;opacity=30;" parent="1" vertex="1">
          <mxGeometry x="757" y="705.5" width="150" height="270" as="geometry" />
        </mxCell>
        <mxCell id="118" value="" style="fillColor=#F2931E;strokeColor=none;opacity=30;" parent="1" vertex="1">
          <mxGeometry x="227.00000000000009" y="445.5000000000002" width="149.99999999999991" height="439.9999999999998" as="geometry" />
        </mxCell>
        <mxCell id="117" value="" style="fillColor=#F2931E;strokeColor=none;opacity=30;" parent="1" vertex="1">
          <mxGeometry x="377" y="535.5" width="1330" height="170" as="geometry" />
        </mxCell>
        <mxCell id="116" value="" style="fillColor=#10739E;strokeColor=none;opacity=30;" parent="1" vertex="1">
          <mxGeometry x="1557" y="985.5000000000002" width="150" height="80" as="geometry" />
        </mxCell>
        <mxCell id="115" value="" style="fillColor=#10739E;strokeColor=none;opacity=30;" parent="1" vertex="1">
          <mxGeometry x="1207" y="715.5" width="330" height="80" as="geometry" />
        </mxCell>
        <mxCell id="114" value="" style="fillColor=#10739E;strokeColor=none;opacity=30;" parent="1" vertex="1">
          <mxGeometry x="756.9999999999999" y="985.5000000000001" width="150" height="80" as="geometry" />
        </mxCell>
        <mxCell id="113" value="" style="fillColor=#10739E;strokeColor=none;opacity=30;" parent="1" vertex="1">
          <mxGeometry x="407.00000000000006" y="715.5000000000001" width="329.99999999999994" height="80" as="geometry" />
        </mxCell>
        <mxCell id="112" value="" style="fillColor=#10739E;strokeColor=none;opacity=30;" parent="1" vertex="1">
          <mxGeometry x="226.99999999999997" y="895.5" width="150" height="80" as="geometry" />
        </mxCell>
        <mxCell id="111" value="" style="fillColor=#D9EAD3;strokeColor=none" parent="1" vertex="1">
          <mxGeometry x="47" y="535.5000000000001" width="150" height="80" as="geometry" />
        </mxCell>
        <mxCell id="110" value="" style="fillColor=#12AAB5;strokeColor=none;opacity=30;" parent="1" vertex="1">
          <mxGeometry x="1207" y="445.5000000000001" width="500" height="80" as="geometry" />
        </mxCell>
        <mxCell id="109" value="" style="fillColor=#12AAB5;strokeColor=none;opacity=30;" parent="1" vertex="1">
          <mxGeometry x="407" y="445.5" width="500" height="80" as="geometry" />
        </mxCell>
        <mxCell id="108" value="" style="fillColor=#12AAB5;strokeColor=none;opacity=30;" parent="1" vertex="1">
          <mxGeometry x="47.000000000000014" y="445.5" width="150" height="80" as="geometry" />
        </mxCell>
        <mxCell id="2" value="Head of Development" style="rounded=1;fillColor=#23445D;gradientColor=none;strokeColor=none;fontColor=#FFFFFF;fontStyle=1;fontFamily=Tahoma;fontSize=14" parent="1" vertex="1">
          <mxGeometry x="757" y="185.5" width="190" height="80" as="geometry" />
        </mxCell>
        <mxCell id="4" value="Training Department" style="rounded=1;fillColor=#23445D;gradientColor=none;strokeColor=none;fontColor=#FFFFFF;fontStyle=1;fontFamily=Tahoma;fontSize=14" parent="1" vertex="1">
          <mxGeometry x="1361.9999999999998" y="335.5" width="190" height="80" as="geometry" />
        </mxCell>
        <mxCell id="9" value="" style="edgeStyle=elbowEdgeStyle;elbow=vertical;strokeWidth=2;rounded=0" parent="1" source="2" target="4" edge="1">
          <mxGeometry x="337" y="215.5" width="100" height="100" as="geometry">
            <mxPoint x="337" y="315.5" as="sourcePoint" />
            <mxPoint x="437" y="215.5" as="targetPoint" />
          </mxGeometry>
        </mxCell>
        <mxCell id="10" value="Technical Support" style="rounded=1;fillColor=#23445D;gradientColor=none;strokeColor=none;fontColor=#FFFFFF;fontStyle=1;fontFamily=Tahoma;fontSize=14" parent="1" vertex="1">
          <mxGeometry x="947" y="335.5" width="190" height="80" as="geometry" />
        </mxCell>
        <mxCell id="12" value="Research and &#xa;Development" style="rounded=1;fillColor=#23445D;gradientColor=none;strokeColor=none;fontColor=#FFFFFF;fontStyle=1;fontFamily=Tahoma;fontSize=14" parent="1" vertex="1">
          <mxGeometry x="561.9999999999999" y="335.5" width="190" height="80" as="geometry" />
        </mxCell>
        <mxCell id="13" value="Human Resources" style="rounded=1;fillColor=#23445D;gradientColor=none;strokeColor=none;fontColor=#FFFFFF;fontStyle=1;fontFamily=Tahoma;fontSize=14" parent="1" vertex="1">
          <mxGeometry x="107" y="335.5" width="190" height="80" as="geometry" />
        </mxCell>
        <mxCell id="14" value="Regular Report" style="rounded=1;fillColor=#23445D;gradientColor=none;strokeColor=none;fontColor=#FFFFFF;fontStyle=1;fontFamily=Tahoma;fontSize=14" parent="1" vertex="1">
          <mxGeometry x="57" y="455.5" width="130" height="60" as="geometry" />
        </mxCell>
        <mxCell id="15" value="Data Collection" style="rounded=1;fillColor=#23445D;gradientColor=none;strokeColor=none;fontColor=#FFFFFF;fontStyle=1;fontFamily=Tahoma;fontSize=14" parent="1" vertex="1">
          <mxGeometry x="57" y="545.5" width="130" height="60" as="geometry" />
        </mxCell>
        <mxCell id="16" value="Programming" style="rounded=1;fillColor=#23445D;gradientColor=none;strokeColor=none;fontColor=#FFFFFF;fontStyle=1;fontFamily=Tahoma;fontSize=14" parent="1" vertex="1">
          <mxGeometry x="237" y="455.5" width="130" height="60" as="geometry" />
        </mxCell>
        <mxCell id="17" value="HTTP" style="rounded=1;fillColor=#23445D;gradientColor=none;strokeColor=none;fontColor=#FFFFFF;fontStyle=1;fontFamily=Tahoma;fontSize=14" parent="1" vertex="1">
          <mxGeometry x="237" y="545.5" width="130" height="60" as="geometry" />
        </mxCell>
        <mxCell id="18" value="HTS" style="rounded=1;fillColor=#23445D;gradientColor=none;strokeColor=none;fontColor=#FFFFFF;fontStyle=1;fontFamily=Tahoma;fontSize=14" parent="1" vertex="1">
          <mxGeometry x="237" y="635.5" width="130" height="60" as="geometry" />
        </mxCell>
        <mxCell id="19" value="CVS" style="rounded=1;fillColor=#23445D;gradientColor=none;strokeColor=none;fontColor=#FFFFFF;fontStyle=1;fontFamily=Tahoma;fontSize=14" parent="1" vertex="1">
          <mxGeometry x="237" y="725.5" width="130" height="60" as="geometry" />
        </mxCell>
        <mxCell id="20" value="Client / Server" style="rounded=1;fillColor=#23445D;gradientColor=none;strokeColor=none;fontColor=#FFFFFF;fontStyle=1;fontFamily=Tahoma;fontSize=14" parent="1" vertex="1">
          <mxGeometry x="237" y="815.5" width="130" height="60" as="geometry" />
        </mxCell>
        <mxCell id="23" value="Data Collection" style="rounded=1;fillColor=#23445D;gradientColor=none;strokeColor=none;fontColor=#FFFFFF;fontStyle=1;fontFamily=Tahoma;fontSize=14" parent="1" vertex="1">
          <mxGeometry x="237" y="905.4999999999999" width="130" height="60" as="geometry" />
        </mxCell>
        <mxCell id="25" value="SI" style="rounded=1;fillColor=#23445D;gradientColor=none;strokeColor=none;fontColor=#FFFFFF;fontStyle=1;fontFamily=Tahoma;fontSize=14" parent="1" vertex="1">
          <mxGeometry x="417" y="455.5" width="130" height="60" as="geometry" />
        </mxCell>
        <mxCell id="26" value="Programming" style="rounded=1;fillColor=#23445D;gradientColor=none;strokeColor=none;fontColor=#FFFFFF;fontStyle=1;fontFamily=Tahoma;fontSize=14" parent="1" vertex="1">
          <mxGeometry x="417" y="545.5" width="130" height="60" as="geometry" />
        </mxCell>
        <mxCell id="27" value="Client / Server" style="rounded=1;fillColor=#23445D;gradientColor=none;strokeColor=none;fontColor=#FFFFFF;fontStyle=1;fontFamily=Tahoma;fontSize=14" parent="1" vertex="1">
          <mxGeometry x="417" y="635.5" width="130" height="60" as="geometry" />
        </mxCell>
        <mxCell id="28" value="Data Collection" style="rounded=1;fillColor=#23445D;gradientColor=none;strokeColor=none;fontColor=#FFFFFF;fontStyle=1;fontFamily=Tahoma;fontSize=14" parent="1" vertex="1">
          <mxGeometry x="417" y="725.5" width="130" height="60" as="geometry" />
        </mxCell>
        <mxCell id="29" value="SSI" style="rounded=1;fillColor=#23445D;gradientColor=none;strokeColor=none;fontColor=#FFFFFF;fontStyle=1;fontFamily=Tahoma;fontSize=14" parent="1" vertex="1">
          <mxGeometry x="592" y="455.5" width="130" height="60" as="geometry" />
        </mxCell>
        <mxCell id="30" value="Programming" style="rounded=1;fillColor=#23445D;gradientColor=none;strokeColor=none;fontColor=#FFFFFF;fontStyle=1;fontFamily=Tahoma;fontSize=14" parent="1" vertex="1">
          <mxGeometry x="592" y="545.5" width="130" height="60" as="geometry" />
        </mxCell>
        <mxCell id="31" value="Client / Server" style="rounded=1;fillColor=#23445D;gradientColor=none;strokeColor=none;fontColor=#FFFFFF;fontStyle=1;fontFamily=Tahoma;fontSize=14" parent="1" vertex="1">
          <mxGeometry x="592" y="635.5" width="130" height="60" as="geometry" />
        </mxCell>
        <mxCell id="32" value="Data Collection" style="rounded=1;fillColor=#23445D;gradientColor=none;strokeColor=none;fontColor=#FFFFFF;fontStyle=1;fontFamily=Tahoma;fontSize=14" parent="1" vertex="1">
          <mxGeometry x="592" y="725.5" width="130" height="60" as="geometry" />
        </mxCell>
        <mxCell id="33" value="XMI" style="rounded=1;fillColor=#23445D;gradientColor=none;strokeColor=none;fontColor=#FFFFFF;fontStyle=1;fontFamily=Tahoma;fontSize=14" parent="1" vertex="1">
          <mxGeometry x="767" y="455.5" width="130" height="60" as="geometry" />
        </mxCell>
        <mxCell id="34" value="Programming" style="rounded=1;fillColor=#23445D;gradientColor=none;strokeColor=none;fontColor=#FFFFFF;fontStyle=1;fontFamily=Tahoma;fontSize=14" parent="1" vertex="1">
          <mxGeometry x="767" y="545.5" width="130" height="60" as="geometry" />
        </mxCell>
        <mxCell id="35" value="HTTP" style="rounded=1;fillColor=#23445D;gradientColor=none;strokeColor=none;fontColor=#FFFFFF;fontStyle=1;fontFamily=Tahoma;fontSize=14" parent="1" vertex="1">
          <mxGeometry x="767" y="635.5" width="130" height="60" as="geometry" />
        </mxCell>
        <mxCell id="36" value="HTS" style="rounded=1;fillColor=#23445D;gradientColor=none;strokeColor=none;fontColor=#FFFFFF;fontStyle=1;fontFamily=Tahoma;fontSize=14" parent="1" vertex="1">
          <mxGeometry x="767" y="725.5" width="130" height="60" as="geometry" />
        </mxCell>
        <mxCell id="37" value="CVS" style="rounded=1;fillColor=#23445D;gradientColor=none;strokeColor=none;fontColor=#FFFFFF;fontStyle=1;fontFamily=Tahoma;fontSize=14" parent="1" vertex="1">
          <mxGeometry x="767" y="815.5" width="130" height="60" as="geometry" />
        </mxCell>
        <mxCell id="38" value="Client / Server" style="rounded=1;fillColor=#23445D;gradientColor=none;strokeColor=none;fontColor=#FFFFFF;fontStyle=1;fontFamily=Tahoma;fontSize=14" parent="1" vertex="1">
          <mxGeometry x="767" y="905.5" width="130" height="60" as="geometry" />
        </mxCell>
        <mxCell id="39" value="Data Collection" style="rounded=1;fillColor=#23445D;gradientColor=none;strokeColor=none;fontColor=#FFFFFF;fontStyle=1;fontFamily=Tahoma;fontSize=14" parent="1" vertex="1">
          <mxGeometry x="767" y="995.5" width="130" height="60" as="geometry" />
        </mxCell>
        <mxCell id="41" value="FAQ" style="rounded=1;fillColor=#23445D;gradientColor=none;strokeColor=none;fontColor=#FFFFFF;fontStyle=1;fontFamily=Tahoma;fontSize=14" parent="1" vertex="1">
          <mxGeometry x="977" y="455.5" width="130" height="60" as="geometry" />
        </mxCell>
        <mxCell id="42" value="Know Issues" style="rounded=1;fillColor=#23445D;gradientColor=none;strokeColor=none;fontColor=#FFFFFF;fontStyle=1;fontFamily=Tahoma;fontSize=14" parent="1" vertex="1">
          <mxGeometry x="977" y="545.5" width="130" height="60" as="geometry" />
        </mxCell>
        <mxCell id="43" value="Knowhow" style="rounded=1;fillColor=#23445D;gradientColor=none;strokeColor=none;fontColor=#FFFFFF;fontStyle=1;fontFamily=Tahoma;fontSize=14" parent="1" vertex="1">
          <mxGeometry x="977" y="635.5" width="130" height="60" as="geometry" />
        </mxCell>
        <mxCell id="44" value="SI" style="rounded=1;fillColor=#23445D;gradientColor=none;strokeColor=none;fontColor=#FFFFFF;fontStyle=1;fontFamily=Tahoma;fontSize=14" parent="1" vertex="1">
          <mxGeometry x="1217" y="455.50000000000006" width="130" height="60" as="geometry" />
        </mxCell>
        <mxCell id="45" value="Programming" style="rounded=1;fillColor=#23445D;gradientColor=none;strokeColor=none;fontColor=#FFFFFF;fontStyle=1;fontFamily=Tahoma;fontSize=14" parent="1" vertex="1">
          <mxGeometry x="1217" y="545.5" width="130" height="60" as="geometry" />
        </mxCell>
        <mxCell id="46" value="Client / Server" style="rounded=1;fillColor=#23445D;gradientColor=none;strokeColor=none;fontColor=#FFFFFF;fontStyle=1;fontFamily=Tahoma;fontSize=14" parent="1" vertex="1">
          <mxGeometry x="1217" y="635.5" width="130" height="60" as="geometry" />
        </mxCell>
        <mxCell id="47" value="Data Collection" style="rounded=1;fillColor=#23445D;gradientColor=none;strokeColor=none;fontColor=#FFFFFF;fontStyle=1;fontFamily=Tahoma;fontSize=14" parent="1" vertex="1">
          <mxGeometry x="1217" y="725.5000000000001" width="130" height="60" as="geometry" />
        </mxCell>
        <mxCell id="48" value="SSI" style="rounded=1;fillColor=#23445D;gradientColor=none;strokeColor=none;fontColor=#FFFFFF;fontStyle=1;fontFamily=Tahoma;fontSize=14" parent="1" vertex="1">
          <mxGeometry x="1392" y="455.50000000000006" width="130" height="60" as="geometry" />
        </mxCell>
        <mxCell id="49" value="Programming" style="rounded=1;fillColor=#23445D;gradientColor=none;strokeColor=none;fontColor=#FFFFFF;fontStyle=1;fontFamily=Tahoma;fontSize=14" parent="1" vertex="1">
          <mxGeometry x="1392" y="545.5" width="130" height="60" as="geometry" />
        </mxCell>
        <mxCell id="50" value="Client / Server" style="rounded=1;fillColor=#23445D;gradientColor=none;strokeColor=none;fontColor=#FFFFFF;fontStyle=1;fontFamily=Tahoma;fontSize=14" parent="1" vertex="1">
          <mxGeometry x="1392" y="635.5" width="130" height="60" as="geometry" />
        </mxCell>
        <mxCell id="51" value="Data Collection" style="rounded=1;fillColor=#23445D;gradientColor=none;strokeColor=none;fontColor=#FFFFFF;fontStyle=1;fontFamily=Tahoma;fontSize=14" parent="1" vertex="1">
          <mxGeometry x="1392" y="725.5000000000001" width="130" height="60" as="geometry" />
        </mxCell>
        <mxCell id="52" value="XMI" style="rounded=1;fillColor=#23445D;gradientColor=none;strokeColor=none;fontColor=#FFFFFF;fontStyle=1;fontFamily=Tahoma;fontSize=14" parent="1" vertex="1">
          <mxGeometry x="1567" y="455.50000000000006" width="130" height="60" as="geometry" />
        </mxCell>
        <mxCell id="53" value="Programming" style="rounded=1;fillColor=#23445D;gradientColor=none;strokeColor=none;fontColor=#FFFFFF;fontStyle=1;fontFamily=Tahoma;fontSize=14" parent="1" vertex="1">
          <mxGeometry x="1567" y="545.5" width="130" height="60" as="geometry" />
        </mxCell>
        <mxCell id="54" value="HTTP" style="rounded=1;fillColor=#23445D;gradientColor=none;strokeColor=none;fontColor=#FFFFFF;fontStyle=1;fontFamily=Tahoma;fontSize=14" parent="1" vertex="1">
          <mxGeometry x="1567" y="635.5" width="130" height="60" as="geometry" />
        </mxCell>
        <mxCell id="55" value="HTS" style="rounded=1;fillColor=#23445D;gradientColor=none;strokeColor=none;fontColor=#FFFFFF;fontStyle=1;fontFamily=Tahoma;fontSize=14" parent="1" vertex="1">
          <mxGeometry x="1567" y="725.5000000000001" width="130" height="60" as="geometry" />
        </mxCell>
        <mxCell id="56" value="CVS" style="rounded=1;fillColor=#23445D;gradientColor=none;strokeColor=none;fontColor=#FFFFFF;fontStyle=1;fontFamily=Tahoma;fontSize=14" parent="1" vertex="1">
          <mxGeometry x="1567" y="815.5000000000001" width="130" height="60" as="geometry" />
        </mxCell>
        <mxCell id="57" value="Client / Server" style="rounded=1;fillColor=#23445D;gradientColor=none;strokeColor=none;fontColor=#FFFFFF;fontStyle=1;fontFamily=Tahoma;fontSize=14" parent="1" vertex="1">
          <mxGeometry x="1567" y="905.5000000000001" width="130" height="60" as="geometry" />
        </mxCell>
        <mxCell id="58" value="Data Collection" style="rounded=1;fillColor=#23445D;gradientColor=none;strokeColor=none;fontColor=#FFFFFF;fontStyle=1;fontFamily=Tahoma;fontSize=14" parent="1" vertex="1">
          <mxGeometry x="1567" y="995.5000000000001" width="130" height="60" as="geometry" />
        </mxCell>
        <mxCell id="59" value="" style="edgeStyle=elbowEdgeStyle;elbow=vertical;strokeWidth=2;rounded=0" parent="1" source="2" target="12" edge="1">
          <mxGeometry x="347" y="225.5" width="100" height="100" as="geometry">
            <mxPoint x="861.9999999999999" y="275.5" as="sourcePoint" />
            <mxPoint x="1466.9999999999998" y="345.5" as="targetPoint" />
          </mxGeometry>
        </mxCell>
        <mxCell id="61" value="" style="edgeStyle=elbowEdgeStyle;elbow=vertical;strokeWidth=2;rounded=0" parent="1" source="2" target="13" edge="1">
          <mxGeometry x="-23" y="135.5" width="100" height="100" as="geometry">
            <mxPoint x="-23" y="235.5" as="sourcePoint" />
            <mxPoint x="77" y="135.5" as="targetPoint" />
          </mxGeometry>
        </mxCell>
        <mxCell id="62" value="" style="edgeStyle=elbowEdgeStyle;elbow=vertical;strokeWidth=2;rounded=0" parent="1" source="13" target="14" edge="1">
          <mxGeometry x="-23" y="135.5" width="100" height="100" as="geometry">
            <mxPoint x="-23" y="235.5" as="sourcePoint" />
            <mxPoint x="77" y="135.5" as="targetPoint" />
          </mxGeometry>
        </mxCell>
        <mxCell id="64" value="" style="edgeStyle=elbowEdgeStyle;elbow=horizontal;strokeWidth=2;rounded=0" parent="1" source="13" target="16" edge="1">
          <mxGeometry x="-23" y="135.5" width="100" height="100" as="geometry">
            <mxPoint x="-23" y="235.5" as="sourcePoint" />
            <mxPoint x="77" y="135.5" as="targetPoint" />
            <Array as="points">
              <mxPoint x="202" y="435.5" />
            </Array>
          </mxGeometry>
        </mxCell>
        <mxCell id="65" value="" style="edgeStyle=elbowEdgeStyle;elbow=horizontal;strokeWidth=2;rounded=0" parent="1" source="13" target="17" edge="1">
          <mxGeometry x="-23" y="135.5" width="100" height="100" as="geometry">
            <mxPoint x="-23" y="235.5" as="sourcePoint" />
            <mxPoint x="77" y="135.5" as="targetPoint" />
            <Array as="points">
              <mxPoint x="202" y="475.5" />
            </Array>
          </mxGeometry>
        </mxCell>
        <mxCell id="66" value="" style="edgeStyle=elbowEdgeStyle;elbow=horizontal;strokeWidth=2;rounded=0" parent="1" source="13" target="18" edge="1">
          <mxGeometry x="-23" y="135.5" width="100" height="100" as="geometry">
            <mxPoint x="-23" y="235.5" as="sourcePoint" />
            <mxPoint x="77" y="135.5" as="targetPoint" />
            <Array as="points">
              <mxPoint x="202" y="525.5" />
            </Array>
          </mxGeometry>
        </mxCell>
        <mxCell id="67" value="" style="edgeStyle=elbowEdgeStyle;elbow=horizontal;strokeWidth=2;rounded=0" parent="1" source="13" target="19" edge="1">
          <mxGeometry x="-23" y="135.5" width="100" height="100" as="geometry">
            <mxPoint x="-23" y="235.5" as="sourcePoint" />
            <mxPoint x="77" y="135.5" as="targetPoint" />
            <Array as="points">
              <mxPoint x="202" y="575.5" />
            </Array>
          </mxGeometry>
        </mxCell>
        <mxCell id="68" value="" style="edgeStyle=elbowEdgeStyle;elbow=horizontal;strokeWidth=2;rounded=0" parent="1" source="13" target="20" edge="1">
          <mxGeometry x="-23" y="135.5" width="100" height="100" as="geometry">
            <mxPoint x="-23" y="235.5" as="sourcePoint" />
            <mxPoint x="77" y="135.5" as="targetPoint" />
            <Array as="points">
              <mxPoint x="202" y="615.5" />
            </Array>
          </mxGeometry>
        </mxCell>
        <mxCell id="69" value="" style="edgeStyle=elbowEdgeStyle;elbow=horizontal;strokeWidth=2;rounded=0" parent="1" source="13" target="23" edge="1">
          <mxGeometry x="-23" y="135.5" width="100" height="100" as="geometry">
            <mxPoint x="-23" y="235.5" as="sourcePoint" />
            <mxPoint x="77" y="135.5" as="targetPoint" />
            <Array as="points">
              <mxPoint x="202" y="665.5" />
            </Array>
          </mxGeometry>
        </mxCell>
        <mxCell id="70" value="" style="edgeStyle=elbowEdgeStyle;elbow=horizontal;strokeWidth=2;rounded=0" parent="1" source="25" target="26" edge="1">
          <mxGeometry x="-23" y="135.5" width="100" height="100" as="geometry">
            <mxPoint x="-23" y="235.5" as="sourcePoint" />
            <mxPoint x="77" y="135.5" as="targetPoint" />
            <Array as="points">
              <mxPoint x="397" y="535.5" />
            </Array>
          </mxGeometry>
        </mxCell>
        <mxCell id="71" value="" style="edgeStyle=elbowEdgeStyle;elbow=horizontal;strokeWidth=2;rounded=0" parent="1" source="25" target="27" edge="1">
          <mxGeometry x="-23" y="135.5" width="100" height="100" as="geometry">
            <mxPoint x="-23" y="235.5" as="sourcePoint" />
            <mxPoint x="77" y="135.5" as="targetPoint" />
            <Array as="points">
              <mxPoint x="397" y="575.5" />
            </Array>
          </mxGeometry>
        </mxCell>
        <mxCell id="72" value="" style="edgeStyle=elbowEdgeStyle;elbow=horizontal;strokeWidth=2;rounded=0" parent="1" source="25" target="28" edge="1">
          <mxGeometry x="-23" y="135.5" width="100" height="100" as="geometry">
            <mxPoint x="-23" y="235.5" as="sourcePoint" />
            <mxPoint x="77" y="135.5" as="targetPoint" />
            <Array as="points">
              <mxPoint x="397" y="615.5" />
            </Array>
          </mxGeometry>
        </mxCell>
        <mxCell id="73" value="" style="edgeStyle=elbowEdgeStyle;elbow=horizontal;strokeWidth=2;rounded=0" parent="1" source="29" target="30" edge="1">
          <mxGeometry x="-23" y="135.5" width="100" height="100" as="geometry">
            <mxPoint x="-23" y="235.5" as="sourcePoint" />
            <mxPoint x="77" y="135.5" as="targetPoint" />
            <Array as="points">
              <mxPoint x="567" y="535.5" />
            </Array>
          </mxGeometry>
        </mxCell>
        <mxCell id="74" value="" style="edgeStyle=elbowEdgeStyle;elbow=horizontal;strokeWidth=2;rounded=0" parent="1" source="29" target="31" edge="1">
          <mxGeometry x="-23" y="135.5" width="100" height="100" as="geometry">
            <mxPoint x="-23" y="235.5" as="sourcePoint" />
            <mxPoint x="77" y="135.5" as="targetPoint" />
            <Array as="points">
              <mxPoint x="567" y="575.5" />
            </Array>
          </mxGeometry>
        </mxCell>
        <mxCell id="75" value="" style="edgeStyle=elbowEdgeStyle;elbow=horizontal;strokeWidth=2;rounded=0" parent="1" source="29" target="32" edge="1">
          <mxGeometry x="-23" y="135.5" width="100" height="100" as="geometry">
            <mxPoint x="-23" y="235.5" as="sourcePoint" />
            <mxPoint x="77" y="135.5" as="targetPoint" />
            <Array as="points">
              <mxPoint x="567" y="615.5" />
            </Array>
          </mxGeometry>
        </mxCell>
        <mxCell id="76" value="" style="edgeStyle=elbowEdgeStyle;elbow=horizontal;strokeWidth=2;rounded=0" parent="1" source="33" target="34" edge="1">
          <mxGeometry x="-23" y="135.5" width="100" height="100" as="geometry">
            <mxPoint x="-23" y="235.5" as="sourcePoint" />
            <mxPoint x="77" y="135.5" as="targetPoint" />
            <Array as="points">
              <mxPoint x="747" y="535.5" />
            </Array>
          </mxGeometry>
        </mxCell>
        <mxCell id="77" value="" style="edgeStyle=elbowEdgeStyle;elbow=horizontal;strokeWidth=2;rounded=0" parent="1" source="33" target="35" edge="1">
          <mxGeometry x="-23" y="135.5" width="100" height="100" as="geometry">
            <mxPoint x="-23" y="235.5" as="sourcePoint" />
            <mxPoint x="77" y="135.5" as="targetPoint" />
            <Array as="points">
              <mxPoint x="747" y="575.5" />
            </Array>
          </mxGeometry>
        </mxCell>
        <mxCell id="78" value="" style="edgeStyle=elbowEdgeStyle;elbow=horizontal;strokeWidth=2;rounded=0" parent="1" source="33" target="36" edge="1">
          <mxGeometry x="-23" y="135.5" width="100" height="100" as="geometry">
            <mxPoint x="-23" y="235.5" as="sourcePoint" />
            <mxPoint x="77" y="135.5" as="targetPoint" />
            <Array as="points">
              <mxPoint x="747" y="625.5" />
            </Array>
          </mxGeometry>
        </mxCell>
        <mxCell id="79" value="" style="edgeStyle=elbowEdgeStyle;elbow=horizontal;strokeWidth=2;rounded=0" parent="1" source="33" target="37" edge="1">
          <mxGeometry x="-23" y="135.5" width="100" height="100" as="geometry">
            <mxPoint x="-23" y="235.5" as="sourcePoint" />
            <mxPoint x="77" y="135.5" as="targetPoint" />
            <Array as="points">
              <mxPoint x="747" y="665.5" />
            </Array>
          </mxGeometry>
        </mxCell>
        <mxCell id="80" value="" style="edgeStyle=elbowEdgeStyle;elbow=horizontal;strokeWidth=2;rounded=0" parent="1" source="33" target="38" edge="1">
          <mxGeometry x="-23" y="135.5" width="100" height="100" as="geometry">
            <mxPoint x="-23" y="235.5" as="sourcePoint" />
            <mxPoint x="77" y="135.5" as="targetPoint" />
            <Array as="points">
              <mxPoint x="747" y="705.5" />
            </Array>
          </mxGeometry>
        </mxCell>
        <mxCell id="81" value="" style="edgeStyle=elbowEdgeStyle;elbow=horizontal;strokeWidth=2;rounded=0" parent="1" source="33" target="39" edge="1">
          <mxGeometry x="-23" y="135.5" width="100" height="100" as="geometry">
            <mxPoint x="-23" y="235.5" as="sourcePoint" />
            <mxPoint x="77" y="135.5" as="targetPoint" />
            <Array as="points">
              <mxPoint x="747" y="755.5" />
            </Array>
          </mxGeometry>
        </mxCell>
        <mxCell id="82" value="" style="edgeStyle=elbowEdgeStyle;elbow=horizontal;strokeWidth=2;rounded=0" parent="1" source="41" target="42" edge="1">
          <mxGeometry x="-23" y="135.5" width="100" height="100" as="geometry">
            <mxPoint x="-23" y="235.5" as="sourcePoint" />
            <mxPoint x="77" y="135.5" as="targetPoint" />
            <Array as="points">
              <mxPoint x="957" y="535.5" />
            </Array>
          </mxGeometry>
        </mxCell>
        <mxCell id="83" value="" style="edgeStyle=elbowEdgeStyle;elbow=horizontal;strokeWidth=2;rounded=0" parent="1" source="41" target="43" edge="1">
          <mxGeometry x="-23" y="135.5" width="100" height="100" as="geometry">
            <mxPoint x="-23" y="235.5" as="sourcePoint" />
            <mxPoint x="77" y="135.5" as="targetPoint" />
            <Array as="points">
              <mxPoint x="957" y="585.5" />
            </Array>
          </mxGeometry>
        </mxCell>
        <mxCell id="84" value="" style="edgeStyle=elbowEdgeStyle;elbow=horizontal;strokeWidth=2;rounded=0" parent="1" source="44" target="45" edge="1">
          <mxGeometry x="-23" y="135.5" width="100" height="100" as="geometry">
            <mxPoint x="-23" y="235.5" as="sourcePoint" />
            <mxPoint x="77" y="135.5" as="targetPoint" />
            <Array as="points">
              <mxPoint x="1197" y="545.5" />
            </Array>
          </mxGeometry>
        </mxCell>
        <mxCell id="85" value="" style="edgeStyle=elbowEdgeStyle;elbow=horizontal;strokeWidth=2;rounded=0" parent="1" source="44" target="46" edge="1">
          <mxGeometry x="-23" y="135.5" width="100" height="100" as="geometry">
            <mxPoint x="-23" y="235.5" as="sourcePoint" />
            <mxPoint x="77" y="135.5" as="targetPoint" />
            <Array as="points">
              <mxPoint x="1197" y="575.5" />
            </Array>
          </mxGeometry>
        </mxCell>
        <mxCell id="86" value="" style="edgeStyle=elbowEdgeStyle;elbow=horizontal;strokeWidth=2;rounded=0" parent="1" source="44" target="47" edge="1">
          <mxGeometry x="-23" y="135.5" width="100" height="100" as="geometry">
            <mxPoint x="-23" y="235.5" as="sourcePoint" />
            <mxPoint x="77" y="135.5" as="targetPoint" />
            <Array as="points">
              <mxPoint x="1197" y="625.5" />
            </Array>
          </mxGeometry>
        </mxCell>
        <mxCell id="87" value="" style="edgeStyle=elbowEdgeStyle;elbow=horizontal;strokeWidth=2;rounded=0" parent="1" source="48" target="49" edge="1">
          <mxGeometry x="-23" y="135.5" width="100" height="100" as="geometry">
            <mxPoint x="-23" y="235.5" as="sourcePoint" />
            <mxPoint x="77" y="135.5" as="targetPoint" />
            <Array as="points">
              <mxPoint x="1367" y="535.5" />
            </Array>
          </mxGeometry>
        </mxCell>
        <mxCell id="88" value="" style="edgeStyle=elbowEdgeStyle;elbow=horizontal;strokeWidth=2;rounded=0" parent="1" source="48" target="50" edge="1">
          <mxGeometry x="-23" y="135.5" width="100" height="100" as="geometry">
            <mxPoint x="-23" y="235.5" as="sourcePoint" />
            <mxPoint x="77" y="135.5" as="targetPoint" />
            <Array as="points">
              <mxPoint x="1367" y="595.5" />
            </Array>
          </mxGeometry>
        </mxCell>
        <mxCell id="89" value="" style="edgeStyle=elbowEdgeStyle;elbow=horizontal;strokeWidth=2;rounded=0" parent="1" source="48" target="51" edge="1">
          <mxGeometry x="-23" y="135.5" width="100" height="100" as="geometry">
            <mxPoint x="-23" y="235.5" as="sourcePoint" />
            <mxPoint x="77" y="135.5" as="targetPoint" />
            <Array as="points">
              <mxPoint x="1367" y="625.5" />
            </Array>
          </mxGeometry>
        </mxCell>
        <mxCell id="90" value="" style="edgeStyle=elbowEdgeStyle;elbow=horizontal;strokeWidth=2;rounded=0" parent="1" source="52" target="53" edge="1">
          <mxGeometry x="-23" y="135.5" width="100" height="100" as="geometry">
            <mxPoint x="-23" y="235.5" as="sourcePoint" />
            <mxPoint x="77" y="135.5" as="targetPoint" />
            <Array as="points">
              <mxPoint x="1547" y="535.5" />
            </Array>
          </mxGeometry>
        </mxCell>
        <mxCell id="91" value="" style="edgeStyle=elbowEdgeStyle;elbow=horizontal;strokeWidth=2;rounded=0" parent="1" source="52" target="54" edge="1">
          <mxGeometry x="-23" y="135.5" width="100" height="100" as="geometry">
            <mxPoint x="-23" y="235.5" as="sourcePoint" />
            <mxPoint x="77" y="135.5" as="targetPoint" />
            <Array as="points">
              <mxPoint x="1547" y="575.5" />
            </Array>
          </mxGeometry>
        </mxCell>
        <mxCell id="92" value="" style="edgeStyle=elbowEdgeStyle;elbow=horizontal;strokeWidth=2;rounded=0" parent="1" source="52" target="55" edge="1">
          <mxGeometry x="-23" y="135.5" width="100" height="100" as="geometry">
            <mxPoint x="-23" y="235.5" as="sourcePoint" />
            <mxPoint x="77" y="135.5" as="targetPoint" />
            <Array as="points">
              <mxPoint x="1547" y="625.5" />
            </Array>
          </mxGeometry>
        </mxCell>
        <mxCell id="93" value="" style="edgeStyle=elbowEdgeStyle;elbow=horizontal;strokeWidth=2;rounded=0" parent="1" source="52" target="56" edge="1">
          <mxGeometry x="-23" y="135.5" width="100" height="100" as="geometry">
            <mxPoint x="-23" y="235.5" as="sourcePoint" />
            <mxPoint x="77" y="135.5" as="targetPoint" />
            <Array as="points">
              <mxPoint x="1547" y="675.5" />
            </Array>
          </mxGeometry>
        </mxCell>
        <mxCell id="94" value="" style="edgeStyle=elbowEdgeStyle;elbow=horizontal;strokeWidth=2;rounded=0" parent="1" source="52" target="57" edge="1">
          <mxGeometry x="-23" y="135.5" width="100" height="100" as="geometry">
            <mxPoint x="-23" y="235.5" as="sourcePoint" />
            <mxPoint x="77" y="135.5" as="targetPoint" />
            <Array as="points">
              <mxPoint x="1547" y="725.5" />
            </Array>
          </mxGeometry>
        </mxCell>
        <mxCell id="95" value="" style="edgeStyle=elbowEdgeStyle;elbow=horizontal;strokeWidth=2;rounded=0" parent="1" source="52" target="58" edge="1">
          <mxGeometry x="-23" y="135.5" width="100" height="100" as="geometry">
            <mxPoint x="-23" y="235.5" as="sourcePoint" />
            <mxPoint x="77" y="135.5" as="targetPoint" />
            <Array as="points">
              <mxPoint x="1547" y="765.5" />
            </Array>
          </mxGeometry>
        </mxCell>
        <mxCell id="100" value="" style="edgeStyle=elbowEdgeStyle;elbow=vertical;strokeWidth=2;rounded=0" parent="1" source="12" target="25" edge="1">
          <mxGeometry x="-23" y="135.5" width="100" height="100" as="geometry">
            <mxPoint x="-23" y="235.5" as="sourcePoint" />
            <mxPoint x="77" y="135.5" as="targetPoint" />
          </mxGeometry>
        </mxCell>
        <mxCell id="101" value="" style="edgeStyle=elbowEdgeStyle;elbow=vertical;strokeWidth=2;rounded=0" parent="1" source="12" target="29" edge="1">
          <mxGeometry x="-23" y="135.5" width="100" height="100" as="geometry">
            <mxPoint x="-23" y="235.5" as="sourcePoint" />
            <mxPoint x="77" y="135.5" as="targetPoint" />
          </mxGeometry>
        </mxCell>
        <mxCell id="102" value="" style="edgeStyle=elbowEdgeStyle;elbow=vertical;strokeWidth=2;rounded=0" parent="1" source="12" target="33" edge="1">
          <mxGeometry x="-23" y="135.5" width="100" height="100" as="geometry">
            <mxPoint x="-23" y="235.5" as="sourcePoint" />
            <mxPoint x="77" y="135.5" as="targetPoint" />
          </mxGeometry>
        </mxCell>
        <mxCell id="103" value="" style="edgeStyle=elbowEdgeStyle;elbow=vertical;strokeWidth=2;rounded=0" parent="1" source="10" target="41" edge="1">
          <mxGeometry x="-23" y="135.5" width="100" height="100" as="geometry">
            <mxPoint x="-23" y="235.5" as="sourcePoint" />
            <mxPoint x="77" y="135.5" as="targetPoint" />
          </mxGeometry>
        </mxCell>
        <mxCell id="104" value="" style="edgeStyle=elbowEdgeStyle;elbow=vertical;strokeWidth=2;rounded=0" parent="1" source="4" target="48" edge="1">
          <mxGeometry x="-23" y="135.5" width="100" height="100" as="geometry">
            <mxPoint x="-23" y="235.5" as="sourcePoint" />
            <mxPoint x="77" y="135.5" as="targetPoint" />
          </mxGeometry>
        </mxCell>
        <mxCell id="105" value="" style="edgeStyle=elbowEdgeStyle;elbow=vertical;strokeWidth=2;rounded=0" parent="1" source="4" target="44" edge="1">
          <mxGeometry x="-23" y="135.5" width="100" height="100" as="geometry">
            <mxPoint x="-23" y="235.5" as="sourcePoint" />
            <mxPoint x="77" y="135.5" as="targetPoint" />
          </mxGeometry>
        </mxCell>
        <mxCell id="106" value="" style="edgeStyle=elbowEdgeStyle;elbow=vertical;strokeWidth=2;rounded=0" parent="1" source="4" target="52" edge="1">
          <mxGeometry x="-23" y="135.5" width="100" height="100" as="geometry">
            <mxPoint x="-23" y="235.5" as="sourcePoint" />
            <mxPoint x="77" y="135.5" as="targetPoint" />
          </mxGeometry>
        </mxCell>
        <mxCell id="107" value="" style="edgeStyle=elbowEdgeStyle;elbow=vertical;rounded=0;strokeWidth=2" parent="1" source="14" target="15" edge="1">
          <mxGeometry x="-23" y="135.5" width="100" height="100" as="geometry">
            <mxPoint x="-23" y="235.5" as="sourcePoint" />
            <mxPoint x="77" y="135.5" as="targetPoint" />
          </mxGeometry>
        </mxCell>
      </root>
    </mxGraphModel>
  </diagram>
  <diagram id="Ljxo2X3pVmppz3Dm-AU1" name="Page-2">
    <mxGraphModel dx="1461" dy="660" grid="1" gridSize="10" guides="1" tooltips="1" connect="1" arrows="1" fold="1" page="1" pageScale="1" pageWidth="850" pageHeight="1100" math="0" shadow="0">
      <root>
        <mxCell id="0" />
        <mxCell id="1" parent="0" />
        <mxCell id="wED44z82WjqaJ6tav5Mp-1" value="Mammal" style="ellipse;whiteSpace=wrap;html=1;shadow=0;fontFamily=Helvetica;fontSize=20;fontColor=#FFFFFF;align=center;strokeWidth=3;fillColor=#1699D3;strokeColor=none;" vertex="1" parent="1">
          <mxGeometry x="506.5" y="210" width="120" height="120" as="geometry" />
        </mxCell>
        <mxCell id="wED44z82WjqaJ6tav5Mp-2" value="Insect" style="ellipse;whiteSpace=wrap;html=1;shadow=0;fontFamily=Helvetica;fontSize=20;fontColor=#FFFFFF;align=center;strokeWidth=3;fillColor=#F08705;strokeColor=none;gradientColor=none;" vertex="1" parent="1">
          <mxGeometry x="1086.5" y="180" width="120" height="120" as="geometry" />
        </mxCell>
        <mxCell id="wED44z82WjqaJ6tav5Mp-3" value="Bird" style="ellipse;whiteSpace=wrap;html=1;shadow=0;fontFamily=Helvetica;fontSize=20;fontColor=#FFFFFF;align=center;strokeWidth=3;fillColor=#E85642;strokeColor=none;" vertex="1" parent="1">
          <mxGeometry x="1684" y="295" width="120" height="120" as="geometry" />
        </mxCell>
        <mxCell id="wED44z82WjqaJ6tav5Mp-4" value="Fish" style="ellipse;whiteSpace=wrap;html=1;shadow=0;fontFamily=Helvetica;fontSize=20;fontColor=#FFFFFF;align=center;strokeWidth=3;fillColor=#1699D3;strokeColor=none;" vertex="1" parent="1">
          <mxGeometry x="1919" y="745" width="120" height="120" as="geometry" />
        </mxCell>
        <mxCell id="wED44z82WjqaJ6tav5Mp-5" value="Bacteria" style="ellipse;whiteSpace=wrap;html=1;shadow=0;fontFamily=Helvetica;fontSize=20;fontColor=#FFFFFF;align=center;strokeWidth=3;fillColor=#736ca8;strokeColor=none;" vertex="1" parent="1">
          <mxGeometry x="1694" y="1110" width="120" height="120" as="geometry" />
        </mxCell>
        <mxCell id="wED44z82WjqaJ6tav5Mp-6" value="Fungi" style="ellipse;whiteSpace=wrap;html=1;shadow=0;fontFamily=Helvetica;fontSize=20;fontColor=#FFFFFF;align=center;strokeWidth=3;fillColor=#F08705;strokeColor=none;" vertex="1" parent="1">
          <mxGeometry x="1146.5" y="1247.5" width="120" height="120" as="geometry" />
        </mxCell>
        <mxCell id="wED44z82WjqaJ6tav5Mp-7" value="Flower" style="ellipse;whiteSpace=wrap;html=1;shadow=0;fontFamily=Helvetica;fontSize=20;fontColor=#FFFFFF;align=center;strokeWidth=3;fillColor=#E85642;strokeColor=none;" vertex="1" parent="1">
          <mxGeometry x="541.5" y="1110" width="120" height="120" as="geometry" />
        </mxCell>
        <mxCell id="wED44z82WjqaJ6tav5Mp-8" value="Ant" style="rounded=1;fillColor=#f5af58;strokeColor=none;strokeWidth=3;shadow=0;html=1;fontColor=#FFFFFF;" vertex="1" parent="1">
          <mxGeometry x="956.5" y="350" width="120" height="40" as="geometry" />
        </mxCell>
        <mxCell id="wED44z82WjqaJ6tav5Mp-9" value="Dolphin" style="rounded=1;fillColor=#64BBE2;strokeColor=none;strokeWidth=3;shadow=0;html=1;fontColor=#FFFFFF;" vertex="1" parent="1">
          <mxGeometry x="412.5" y="380" width="130" height="40" as="geometry" />
        </mxCell>
        <mxCell id="wED44z82WjqaJ6tav5Mp-10" style="endArrow=none;strokeWidth=6;strokeColor=#1699D3;html=1;rounded=0;" edge="1" parent="1" source="wED44z82WjqaJ6tav5Mp-163" target="wED44z82WjqaJ6tav5Mp-1">
          <mxGeometry relative="1" as="geometry" />
        </mxCell>
        <mxCell id="wED44z82WjqaJ6tav5Mp-11" style="endArrow=none;strokeWidth=6;strokeColor=#f08705;html=1;rounded=0;" edge="1" parent="1" source="wED44z82WjqaJ6tav5Mp-163" target="wED44z82WjqaJ6tav5Mp-2">
          <mxGeometry relative="1" as="geometry" />
        </mxCell>
        <mxCell id="wED44z82WjqaJ6tav5Mp-12" style="endArrow=none;strokeWidth=6;strokeColor=#E85642;html=1;rounded=0;" edge="1" parent="1" source="wED44z82WjqaJ6tav5Mp-163" target="wED44z82WjqaJ6tav5Mp-3">
          <mxGeometry relative="1" as="geometry" />
        </mxCell>
        <mxCell id="wED44z82WjqaJ6tav5Mp-13" style="endArrow=none;strokeWidth=6;strokeColor=#1699D3;html=1;rounded=0;" edge="1" parent="1" source="wED44z82WjqaJ6tav5Mp-163" target="wED44z82WjqaJ6tav5Mp-4">
          <mxGeometry relative="1" as="geometry" />
        </mxCell>
        <mxCell id="wED44z82WjqaJ6tav5Mp-14" style="endArrow=none;strokeWidth=6;strokeColor=#736CA8;html=1;rounded=0;" edge="1" parent="1" source="wED44z82WjqaJ6tav5Mp-163" target="wED44z82WjqaJ6tav5Mp-164">
          <mxGeometry relative="1" as="geometry" />
        </mxCell>
        <mxCell id="wED44z82WjqaJ6tav5Mp-15" style="endArrow=none;strokeWidth=6;strokeColor=#736ca8;html=1;rounded=0;" edge="1" parent="1" source="wED44z82WjqaJ6tav5Mp-163" target="wED44z82WjqaJ6tav5Mp-5">
          <mxGeometry relative="1" as="geometry" />
        </mxCell>
        <mxCell id="wED44z82WjqaJ6tav5Mp-16" value="" style="edgeStyle=none;endArrow=none;strokeWidth=6;strokeColor=#F08705;html=1;rounded=0;" edge="1" parent="1" source="wED44z82WjqaJ6tav5Mp-163" target="wED44z82WjqaJ6tav5Mp-6">
          <mxGeometry x="181" y="226.5" width="100" height="100" as="geometry">
            <mxPoint x="164" y="265" as="sourcePoint" />
            <mxPoint x="264" y="165" as="targetPoint" />
          </mxGeometry>
        </mxCell>
        <mxCell id="wED44z82WjqaJ6tav5Mp-17" value="" style="edgeStyle=none;endArrow=none;strokeWidth=6;strokeColor=#E85642;html=1;rounded=0;" edge="1" parent="1" source="wED44z82WjqaJ6tav5Mp-163" target="wED44z82WjqaJ6tav5Mp-7">
          <mxGeometry x="181" y="226.5" width="100" height="100" as="geometry">
            <mxPoint x="164" y="265" as="sourcePoint" />
            <mxPoint x="264" y="165" as="targetPoint" />
          </mxGeometry>
        </mxCell>
        <mxCell id="wED44z82WjqaJ6tav5Mp-18" value="Lion" style="rounded=1;fillColor=#64BBE2;strokeColor=none;strokeWidth=3;shadow=0;html=1;fontColor=#FFFFFF;" vertex="1" parent="1">
          <mxGeometry x="713" y="260" width="130" height="40" as="geometry" />
        </mxCell>
        <mxCell id="wED44z82WjqaJ6tav5Mp-19" value="Elephant" style="rounded=1;fillColor=#64BBE2;strokeColor=none;strokeWidth=3;shadow=0;html=1;fontColor=#FFFFFF;" vertex="1" parent="1">
          <mxGeometry x="351.5" y="330" width="130" height="40" as="geometry" />
        </mxCell>
        <mxCell id="wED44z82WjqaJ6tav5Mp-20" value="Cat" style="rounded=1;fillColor=#64BBE2;strokeColor=none;strokeWidth=3;shadow=0;html=1;fontColor=#FFFFFF;" vertex="1" parent="1">
          <mxGeometry x="313" y="250" width="130" height="40" as="geometry" />
        </mxCell>
        <mxCell id="wED44z82WjqaJ6tav5Mp-21" value="Giraffe" style="rounded=1;fillColor=#64BBE2;strokeColor=none;strokeWidth=3;shadow=0;html=1;fontColor=#FFFFFF;" vertex="1" parent="1">
          <mxGeometry x="331.5" y="185" width="130" height="40" as="geometry" />
        </mxCell>
        <mxCell id="wED44z82WjqaJ6tav5Mp-22" value="Dog" style="rounded=1;fillColor=#64BBE2;strokeColor=none;strokeWidth=3;shadow=0;html=1;fontColor=#FFFFFF;" vertex="1" parent="1">
          <mxGeometry x="363" y="125" width="130" height="40" as="geometry" />
        </mxCell>
        <mxCell id="wED44z82WjqaJ6tav5Mp-23" value="Donkey" style="rounded=1;fillColor=#64BBE2;strokeColor=none;strokeWidth=3;shadow=0;html=1;fontColor=#FFFFFF;" vertex="1" parent="1">
          <mxGeometry x="438" y="78.5" width="130" height="40" as="geometry" />
        </mxCell>
        <mxCell id="wED44z82WjqaJ6tav5Mp-24" value="Leopard" style="rounded=1;fillColor=#64BBE2;strokeColor=none;strokeWidth=3;shadow=0;html=1;fontColor=#FFFFFF;" vertex="1" parent="1">
          <mxGeometry x="583" y="78.5" width="130" height="40" as="geometry" />
        </mxCell>
        <mxCell id="wED44z82WjqaJ6tav5Mp-25" value="Horse" style="rounded=1;fillColor=#64BBE2;strokeColor=none;strokeWidth=3;shadow=0;html=1;fontColor=#FFFFFF;" vertex="1" parent="1">
          <mxGeometry x="661.5" y="140" width="130" height="40" as="geometry" />
        </mxCell>
        <mxCell id="wED44z82WjqaJ6tav5Mp-26" value="Zebra" style="rounded=1;fillColor=#64BBE2;strokeColor=none;strokeWidth=3;shadow=0;html=1;fontColor=#FFFFFF;" vertex="1" parent="1">
          <mxGeometry x="713" y="200" width="130" height="40" as="geometry" />
        </mxCell>
        <mxCell id="wED44z82WjqaJ6tav5Mp-27" value="Gazelle" style="rounded=1;fillColor=#64BBE2;strokeColor=none;strokeWidth=3;shadow=0;html=1;fontColor=#FFFFFF;" vertex="1" parent="1">
          <mxGeometry x="693" y="330" width="130" height="40" as="geometry" />
        </mxCell>
        <mxCell id="wED44z82WjqaJ6tav5Mp-28" value="" style="edgeStyle=none;endArrow=none;strokeWidth=3;strokeColor=#64BBE2;html=1;rounded=0;" edge="1" parent="1" source="wED44z82WjqaJ6tav5Mp-1" target="wED44z82WjqaJ6tav5Mp-27">
          <mxGeometry x="-221.5" y="56.5" width="100" height="100" as="geometry">
            <mxPoint x="-238.5" y="95" as="sourcePoint" />
            <mxPoint x="-138.5" y="-5" as="targetPoint" />
          </mxGeometry>
        </mxCell>
        <mxCell id="wED44z82WjqaJ6tav5Mp-29" value="" style="edgeStyle=none;endArrow=none;strokeWidth=3;strokeColor=#64BBE2;html=1;rounded=0;" edge="1" parent="1" source="wED44z82WjqaJ6tav5Mp-1" target="wED44z82WjqaJ6tav5Mp-18">
          <mxGeometry x="-221.5" y="56.5" width="100" height="100" as="geometry">
            <mxPoint x="-238.5" y="95" as="sourcePoint" />
            <mxPoint x="-138.5" y="-5" as="targetPoint" />
          </mxGeometry>
        </mxCell>
        <mxCell id="wED44z82WjqaJ6tav5Mp-30" value="" style="edgeStyle=none;endArrow=none;strokeWidth=3;strokeColor=#64BBE2;html=1;rounded=0;" edge="1" parent="1" source="wED44z82WjqaJ6tav5Mp-1" target="wED44z82WjqaJ6tav5Mp-9">
          <mxGeometry x="-221.5" y="56.5" width="100" height="100" as="geometry">
            <mxPoint x="-238.5" y="95" as="sourcePoint" />
            <mxPoint x="-138.5" y="-5" as="targetPoint" />
          </mxGeometry>
        </mxCell>
        <mxCell id="wED44z82WjqaJ6tav5Mp-31" value="" style="edgeStyle=none;endArrow=none;strokeWidth=3;strokeColor=#64BBE2;html=1;rounded=0;" edge="1" parent="1" source="wED44z82WjqaJ6tav5Mp-1" target="wED44z82WjqaJ6tav5Mp-19">
          <mxGeometry x="-221.5" y="56.5" width="100" height="100" as="geometry">
            <mxPoint x="-238.5" y="95" as="sourcePoint" />
            <mxPoint x="-138.5" y="-5" as="targetPoint" />
          </mxGeometry>
        </mxCell>
        <mxCell id="wED44z82WjqaJ6tav5Mp-32" value="" style="edgeStyle=none;endArrow=none;strokeWidth=3;strokeColor=#64BBE2;html=1;rounded=0;" edge="1" parent="1" source="wED44z82WjqaJ6tav5Mp-1" target="wED44z82WjqaJ6tav5Mp-20">
          <mxGeometry x="-221.5" y="56.5" width="100" height="100" as="geometry">
            <mxPoint x="-238.5" y="95" as="sourcePoint" />
            <mxPoint x="-138.5" y="-5" as="targetPoint" />
          </mxGeometry>
        </mxCell>
        <mxCell id="wED44z82WjqaJ6tav5Mp-33" value="" style="edgeStyle=none;endArrow=none;strokeWidth=3;strokeColor=#64BBE2;html=1;rounded=0;" edge="1" parent="1" source="wED44z82WjqaJ6tav5Mp-1" target="wED44z82WjqaJ6tav5Mp-21">
          <mxGeometry x="-221.5" y="56.5" width="100" height="100" as="geometry">
            <mxPoint x="-238.5" y="95" as="sourcePoint" />
            <mxPoint x="-138.5" y="-5" as="targetPoint" />
          </mxGeometry>
        </mxCell>
        <mxCell id="wED44z82WjqaJ6tav5Mp-34" value="" style="edgeStyle=none;endArrow=none;strokeWidth=3;strokeColor=#64BBE2;html=1;rounded=0;" edge="1" parent="1" source="wED44z82WjqaJ6tav5Mp-1" target="wED44z82WjqaJ6tav5Mp-22">
          <mxGeometry x="-221.5" y="56.5" width="100" height="100" as="geometry">
            <mxPoint x="-238.5" y="95" as="sourcePoint" />
            <mxPoint x="-138.5" y="-5" as="targetPoint" />
          </mxGeometry>
        </mxCell>
        <mxCell id="wED44z82WjqaJ6tav5Mp-35" value="" style="edgeStyle=none;endArrow=none;strokeWidth=3;strokeColor=#64BBE2;html=1;rounded=0;" edge="1" parent="1" source="wED44z82WjqaJ6tav5Mp-1" target="wED44z82WjqaJ6tav5Mp-23">
          <mxGeometry x="-221.5" y="56.5" width="100" height="100" as="geometry">
            <mxPoint x="-238.5" y="95" as="sourcePoint" />
            <mxPoint x="-138.5" y="-5" as="targetPoint" />
          </mxGeometry>
        </mxCell>
        <mxCell id="wED44z82WjqaJ6tav5Mp-36" value="" style="edgeStyle=none;endArrow=none;strokeWidth=3;strokeColor=#64BBE2;html=1;rounded=0;" edge="1" parent="1" source="wED44z82WjqaJ6tav5Mp-1" target="wED44z82WjqaJ6tav5Mp-24">
          <mxGeometry x="-221.5" y="56.5" width="100" height="100" as="geometry">
            <mxPoint x="-238.5" y="95" as="sourcePoint" />
            <mxPoint x="-138.5" y="-5" as="targetPoint" />
          </mxGeometry>
        </mxCell>
        <mxCell id="wED44z82WjqaJ6tav5Mp-37" value="" style="edgeStyle=none;endArrow=none;strokeWidth=3;strokeColor=#64BBE2;html=1;rounded=0;" edge="1" parent="1" source="wED44z82WjqaJ6tav5Mp-1" target="wED44z82WjqaJ6tav5Mp-25">
          <mxGeometry x="-221.5" y="56.5" width="100" height="100" as="geometry">
            <mxPoint x="-238.5" y="95" as="sourcePoint" />
            <mxPoint x="-138.5" y="-5" as="targetPoint" />
          </mxGeometry>
        </mxCell>
        <mxCell id="wED44z82WjqaJ6tav5Mp-38" value="" style="edgeStyle=none;endArrow=none;strokeWidth=3;strokeColor=#64BBE2;html=1;rounded=0;" edge="1" parent="1" source="wED44z82WjqaJ6tav5Mp-1" target="wED44z82WjqaJ6tav5Mp-26">
          <mxGeometry x="-221.5" y="56.5" width="100" height="100" as="geometry">
            <mxPoint x="-238.5" y="95" as="sourcePoint" />
            <mxPoint x="-138.5" y="-5" as="targetPoint" />
          </mxGeometry>
        </mxCell>
        <mxCell id="wED44z82WjqaJ6tav5Mp-39" value="Bee" style="rounded=1;fillColor=#f5af58;strokeColor=none;strokeWidth=3;shadow=0;html=1;fontColor=#FFFFFF;" vertex="1" parent="1">
          <mxGeometry x="896.5" y="280" width="120" height="40" as="geometry" />
        </mxCell>
        <mxCell id="wED44z82WjqaJ6tav5Mp-40" value="Hornet" style="rounded=1;fillColor=#f5af58;strokeColor=none;strokeWidth=3;shadow=0;html=1;fontColor=#FFFFFF;" vertex="1" parent="1">
          <mxGeometry x="886.5" y="210" width="120" height="40" as="geometry" />
        </mxCell>
        <mxCell id="wED44z82WjqaJ6tav5Mp-41" value="Fly" style="rounded=1;fillColor=#f5af58;strokeColor=none;strokeWidth=3;shadow=0;html=1;fontColor=#FFFFFF;" vertex="1" parent="1">
          <mxGeometry x="906.5" y="140" width="120" height="40" as="geometry" />
        </mxCell>
        <mxCell id="wED44z82WjqaJ6tav5Mp-42" value="Termite" style="rounded=1;fillColor=#f5af58;strokeColor=none;strokeWidth=3;shadow=0;html=1;fontColor=#FFFFFF;" vertex="1" parent="1">
          <mxGeometry x="946.5" y="80" width="120" height="40" as="geometry" />
        </mxCell>
        <mxCell id="wED44z82WjqaJ6tav5Mp-43" value="Mantis" style="rounded=1;fillColor=#f5af58;strokeColor=none;strokeWidth=3;shadow=0;html=1;fontColor=#FFFFFF;" vertex="1" parent="1">
          <mxGeometry x="1016.5" y="20" width="120" height="40" as="geometry" />
        </mxCell>
        <mxCell id="wED44z82WjqaJ6tav5Mp-44" value="Ladybug" style="rounded=1;fillColor=#f5af58;strokeColor=none;strokeWidth=3;shadow=0;html=1;fontColor=#FFFFFF;" vertex="1" parent="1">
          <mxGeometry x="1146.5" y="20" width="120" height="40" as="geometry" />
        </mxCell>
        <mxCell id="wED44z82WjqaJ6tav5Mp-45" value="Butterfly" style="rounded=1;fillColor=#f5af58;strokeColor=none;strokeWidth=3;shadow=0;html=1;fontColor=#FFFFFF;" vertex="1" parent="1">
          <mxGeometry x="1216.5" y="80" width="120" height="40" as="geometry" />
        </mxCell>
        <mxCell id="wED44z82WjqaJ6tav5Mp-46" value="Flea" style="rounded=1;fillColor=#f5af58;strokeColor=none;strokeWidth=3;shadow=0;html=1;fontColor=#FFFFFF;" vertex="1" parent="1">
          <mxGeometry x="1266.5" y="140" width="120" height="40" as="geometry" />
        </mxCell>
        <mxCell id="wED44z82WjqaJ6tav5Mp-47" value="Mosquito" style="rounded=1;fillColor=#f5af58;strokeColor=none;strokeWidth=3;shadow=0;html=1;fontColor=#FFFFFF;" vertex="1" parent="1">
          <mxGeometry x="1281.5" y="210" width="120" height="40" as="geometry" />
        </mxCell>
        <mxCell id="wED44z82WjqaJ6tav5Mp-48" value="Spider" style="rounded=1;fillColor=#f5af58;strokeColor=none;strokeWidth=3;shadow=0;html=1;fontColor=#FFFFFF;" vertex="1" parent="1">
          <mxGeometry x="1276.5" y="270" width="120" height="40" as="geometry" />
        </mxCell>
        <mxCell id="wED44z82WjqaJ6tav5Mp-49" value="Bumblebee" style="rounded=1;fillColor=#f5af58;strokeColor=none;strokeWidth=3;shadow=0;html=1;fontColor=#FFFFFF;" vertex="1" parent="1">
          <mxGeometry x="1221.5" y="340" width="120" height="40" as="geometry" />
        </mxCell>
        <mxCell id="wED44z82WjqaJ6tav5Mp-50" value="" style="edgeStyle=none;endArrow=none;strokeWidth=3;strokeColor=#F5AF58;html=1;rounded=0;" edge="1" parent="1" source="wED44z82WjqaJ6tav5Mp-2" target="wED44z82WjqaJ6tav5Mp-8">
          <mxGeometry x="3.5" y="21.5" width="100" height="100" as="geometry">
            <mxPoint x="-13.5" y="60" as="sourcePoint" />
            <mxPoint x="86.5" y="-40" as="targetPoint" />
          </mxGeometry>
        </mxCell>
        <mxCell id="wED44z82WjqaJ6tav5Mp-51" value="" style="edgeStyle=none;endArrow=none;strokeWidth=3;strokeColor=#F5AF58;html=1;rounded=0;" edge="1" parent="1" source="wED44z82WjqaJ6tav5Mp-2" target="wED44z82WjqaJ6tav5Mp-39">
          <mxGeometry x="3.5" y="21.5" width="100" height="100" as="geometry">
            <mxPoint x="-13.5" y="60" as="sourcePoint" />
            <mxPoint x="86.5" y="-40" as="targetPoint" />
          </mxGeometry>
        </mxCell>
        <mxCell id="wED44z82WjqaJ6tav5Mp-52" value="" style="edgeStyle=none;endArrow=none;strokeWidth=3;strokeColor=#F5AF58;html=1;rounded=0;" edge="1" parent="1" source="wED44z82WjqaJ6tav5Mp-2" target="wED44z82WjqaJ6tav5Mp-40">
          <mxGeometry x="3.5" y="21.5" width="100" height="100" as="geometry">
            <mxPoint x="-13.5" y="60" as="sourcePoint" />
            <mxPoint x="86.5" y="-40" as="targetPoint" />
          </mxGeometry>
        </mxCell>
        <mxCell id="wED44z82WjqaJ6tav5Mp-53" value="" style="edgeStyle=none;endArrow=none;strokeWidth=3;strokeColor=#F5AF58;html=1;rounded=0;" edge="1" parent="1" source="wED44z82WjqaJ6tav5Mp-2" target="wED44z82WjqaJ6tav5Mp-41">
          <mxGeometry x="3.5" y="21.5" width="100" height="100" as="geometry">
            <mxPoint x="-13.5" y="60" as="sourcePoint" />
            <mxPoint x="86.5" y="-40" as="targetPoint" />
          </mxGeometry>
        </mxCell>
        <mxCell id="wED44z82WjqaJ6tav5Mp-54" value="" style="edgeStyle=none;endArrow=none;strokeWidth=3;strokeColor=#F5AF58;html=1;rounded=0;" edge="1" parent="1" source="wED44z82WjqaJ6tav5Mp-2" target="wED44z82WjqaJ6tav5Mp-42">
          <mxGeometry x="3.5" y="21.5" width="100" height="100" as="geometry">
            <mxPoint x="-13.5" y="60" as="sourcePoint" />
            <mxPoint x="86.5" y="-40" as="targetPoint" />
          </mxGeometry>
        </mxCell>
        <mxCell id="wED44z82WjqaJ6tav5Mp-55" value="" style="edgeStyle=none;endArrow=none;strokeWidth=3;strokeColor=#F5AF58;html=1;rounded=0;" edge="1" parent="1" source="wED44z82WjqaJ6tav5Mp-2" target="wED44z82WjqaJ6tav5Mp-43">
          <mxGeometry x="3.5" y="21.5" width="100" height="100" as="geometry">
            <mxPoint x="-13.5" y="60" as="sourcePoint" />
            <mxPoint x="86.5" y="-40" as="targetPoint" />
          </mxGeometry>
        </mxCell>
        <mxCell id="wED44z82WjqaJ6tav5Mp-56" value="" style="edgeStyle=none;endArrow=none;strokeWidth=3;strokeColor=#F5AF58;html=1;rounded=0;" edge="1" parent="1" source="wED44z82WjqaJ6tav5Mp-2" target="wED44z82WjqaJ6tav5Mp-44">
          <mxGeometry x="3.5" y="21.5" width="100" height="100" as="geometry">
            <mxPoint x="-13.5" y="60" as="sourcePoint" />
            <mxPoint x="86.5" y="-40" as="targetPoint" />
          </mxGeometry>
        </mxCell>
        <mxCell id="wED44z82WjqaJ6tav5Mp-57" value="" style="edgeStyle=none;endArrow=none;strokeWidth=3;strokeColor=#F5AF58;html=1;rounded=0;" edge="1" parent="1" source="wED44z82WjqaJ6tav5Mp-2" target="wED44z82WjqaJ6tav5Mp-45">
          <mxGeometry x="3.5" y="21.5" width="100" height="100" as="geometry">
            <mxPoint x="-13.5" y="60" as="sourcePoint" />
            <mxPoint x="86.5" y="-40" as="targetPoint" />
          </mxGeometry>
        </mxCell>
        <mxCell id="wED44z82WjqaJ6tav5Mp-58" value="" style="edgeStyle=none;endArrow=none;strokeWidth=3;strokeColor=#F5AF58;html=1;rounded=0;" edge="1" parent="1" source="wED44z82WjqaJ6tav5Mp-2" target="wED44z82WjqaJ6tav5Mp-46">
          <mxGeometry x="3.5" y="21.5" width="100" height="100" as="geometry">
            <mxPoint x="-13.5" y="60" as="sourcePoint" />
            <mxPoint x="86.5" y="-40" as="targetPoint" />
          </mxGeometry>
        </mxCell>
        <mxCell id="wED44z82WjqaJ6tav5Mp-59" value="" style="edgeStyle=none;endArrow=none;strokeWidth=3;strokeColor=#F5AF58;html=1;rounded=0;" edge="1" parent="1" source="wED44z82WjqaJ6tav5Mp-2" target="wED44z82WjqaJ6tav5Mp-47">
          <mxGeometry x="3.5" y="21.5" width="100" height="100" as="geometry">
            <mxPoint x="-13.5" y="60" as="sourcePoint" />
            <mxPoint x="86.5" y="-40" as="targetPoint" />
          </mxGeometry>
        </mxCell>
        <mxCell id="wED44z82WjqaJ6tav5Mp-60" value="" style="edgeStyle=none;endArrow=none;strokeWidth=3;strokeColor=#F5AF58;html=1;rounded=0;" edge="1" parent="1" source="wED44z82WjqaJ6tav5Mp-2" target="wED44z82WjqaJ6tav5Mp-48">
          <mxGeometry x="3.5" y="21.5" width="100" height="100" as="geometry">
            <mxPoint x="-13.5" y="60" as="sourcePoint" />
            <mxPoint x="86.5" y="-40" as="targetPoint" />
          </mxGeometry>
        </mxCell>
        <mxCell id="wED44z82WjqaJ6tav5Mp-61" value="" style="edgeStyle=none;endArrow=none;strokeWidth=3;strokeColor=#F5AF58;html=1;rounded=0;" edge="1" parent="1" source="wED44z82WjqaJ6tav5Mp-2" target="wED44z82WjqaJ6tav5Mp-49">
          <mxGeometry x="3.5" y="21.5" width="100" height="100" as="geometry">
            <mxPoint x="-13.5" y="60" as="sourcePoint" />
            <mxPoint x="86.5" y="-40" as="targetPoint" />
          </mxGeometry>
        </mxCell>
        <mxCell id="wED44z82WjqaJ6tav5Mp-62" value="Eagle" style="rounded=1;fillColor=#f08e81;strokeColor=none;strokeWidth=3;shadow=0;html=1;fontColor=#FFFFFF;" vertex="1" parent="1">
          <mxGeometry x="1594" y="455" width="120" height="40" as="geometry" />
        </mxCell>
        <mxCell id="wED44z82WjqaJ6tav5Mp-63" value="Pigeon" style="rounded=1;fillColor=#f08e81;strokeColor=none;strokeWidth=3;shadow=0;html=1;fontColor=#FFFFFF;" vertex="1" parent="1">
          <mxGeometry x="1929" y="340" width="120" height="40" as="geometry" />
        </mxCell>
        <mxCell id="wED44z82WjqaJ6tav5Mp-64" value="Hawk" style="rounded=1;fillColor=#f08e81;strokeColor=none;strokeWidth=3;shadow=0;html=1;fontColor=#FFFFFF;" vertex="1" parent="1">
          <mxGeometry x="1474" y="375" width="120" height="40" as="geometry" />
        </mxCell>
        <mxCell id="wED44z82WjqaJ6tav5Mp-65" value="Falcon" style="rounded=1;fillColor=#f08e81;strokeColor=none;strokeWidth=3;shadow=0;html=1;fontColor=#FFFFFF;" vertex="1" parent="1">
          <mxGeometry x="1504" y="310" width="120" height="40" as="geometry" />
        </mxCell>
        <mxCell id="wED44z82WjqaJ6tav5Mp-66" value="Sparrow" style="rounded=1;fillColor=#f08e81;strokeColor=none;strokeWidth=3;shadow=0;html=1;fontColor=#FFFFFF;" vertex="1" parent="1">
          <mxGeometry x="1524" y="230" width="120" height="40" as="geometry" />
        </mxCell>
        <mxCell id="wED44z82WjqaJ6tav5Mp-67" value="Stork" style="rounded=1;fillColor=#f08e81;strokeColor=none;strokeWidth=3;shadow=0;html=1;fontColor=#FFFFFF;" vertex="1" parent="1">
          <mxGeometry x="1614" y="160" width="120" height="40" as="geometry" />
        </mxCell>
        <mxCell id="wED44z82WjqaJ6tav5Mp-68" value="Flamingo" style="rounded=1;fillColor=#f08e81;strokeColor=none;strokeWidth=3;shadow=0;html=1;fontColor=#FFFFFF;" vertex="1" parent="1">
          <mxGeometry x="1749" y="105" width="120" height="40" as="geometry" />
        </mxCell>
        <mxCell id="wED44z82WjqaJ6tav5Mp-69" value="Penguin" style="rounded=1;fillColor=#f08e81;strokeColor=none;strokeWidth=3;shadow=0;html=1;fontColor=#FFFFFF;" vertex="1" parent="1">
          <mxGeometry x="1844" y="190" width="120" height="40" as="geometry" />
        </mxCell>
        <mxCell id="wED44z82WjqaJ6tav5Mp-70" value="Owl" style="rounded=1;fillColor=#f08e81;strokeColor=none;strokeWidth=3;shadow=0;html=1;fontColor=#FFFFFF;" vertex="1" parent="1">
          <mxGeometry x="1899" y="260" width="120" height="40" as="geometry" />
        </mxCell>
        <mxCell id="wED44z82WjqaJ6tav5Mp-71" value="Albatross" style="rounded=1;fillColor=#f08e81;strokeColor=none;strokeWidth=3;shadow=0;html=1;fontColor=#FFFFFF;" vertex="1" parent="1">
          <mxGeometry x="1674" y="515" width="120" height="40" as="geometry" />
        </mxCell>
        <mxCell id="wED44z82WjqaJ6tav5Mp-72" value="Pelican" style="rounded=1;fillColor=#f08e81;strokeColor=none;strokeWidth=3;shadow=0;html=1;fontColor=#FFFFFF;" vertex="1" parent="1">
          <mxGeometry x="1764" y="445" width="120" height="40" as="geometry" />
        </mxCell>
        <mxCell id="wED44z82WjqaJ6tav5Mp-73" value="Swallow" style="rounded=1;fillColor=#f08e81;strokeColor=none;strokeWidth=3;shadow=0;html=1;fontColor=#FFFFFF;" vertex="1" parent="1">
          <mxGeometry x="1859" y="400" width="120" height="40" as="geometry" />
        </mxCell>
        <mxCell id="wED44z82WjqaJ6tav5Mp-74" value="" style="edgeStyle=none;endArrow=none;strokeWidth=3;strokeColor=#F08E81;html=1;rounded=0;" edge="1" parent="1" source="wED44z82WjqaJ6tav5Mp-3" target="wED44z82WjqaJ6tav5Mp-62">
          <mxGeometry x="31" y="106.5" width="100" height="100" as="geometry">
            <mxPoint x="14" y="145" as="sourcePoint" />
            <mxPoint x="114" y="45" as="targetPoint" />
          </mxGeometry>
        </mxCell>
        <mxCell id="wED44z82WjqaJ6tav5Mp-75" value="" style="edgeStyle=none;endArrow=none;strokeWidth=3;strokeColor=#F08E81;html=1;rounded=0;" edge="1" parent="1" source="wED44z82WjqaJ6tav5Mp-3" target="wED44z82WjqaJ6tav5Mp-64">
          <mxGeometry x="31" y="106.5" width="100" height="100" as="geometry">
            <mxPoint x="14" y="145" as="sourcePoint" />
            <mxPoint x="114" y="45" as="targetPoint" />
          </mxGeometry>
        </mxCell>
        <mxCell id="wED44z82WjqaJ6tav5Mp-76" value="" style="edgeStyle=none;endArrow=none;strokeWidth=3;strokeColor=#F08E81;html=1;rounded=0;" edge="1" parent="1" source="wED44z82WjqaJ6tav5Mp-3" target="wED44z82WjqaJ6tav5Mp-65">
          <mxGeometry x="31" y="106.5" width="100" height="100" as="geometry">
            <mxPoint x="14" y="145" as="sourcePoint" />
            <mxPoint x="114" y="45" as="targetPoint" />
          </mxGeometry>
        </mxCell>
        <mxCell id="wED44z82WjqaJ6tav5Mp-77" value="" style="edgeStyle=none;endArrow=none;strokeWidth=3;strokeColor=#F08E81;html=1;rounded=0;" edge="1" parent="1" source="wED44z82WjqaJ6tav5Mp-3" target="wED44z82WjqaJ6tav5Mp-66">
          <mxGeometry x="31" y="106.5" width="100" height="100" as="geometry">
            <mxPoint x="14" y="145" as="sourcePoint" />
            <mxPoint x="114" y="45" as="targetPoint" />
          </mxGeometry>
        </mxCell>
        <mxCell id="wED44z82WjqaJ6tav5Mp-78" value="" style="edgeStyle=none;endArrow=none;strokeWidth=3;strokeColor=#F08E81;html=1;rounded=0;" edge="1" parent="1" source="wED44z82WjqaJ6tav5Mp-3" target="wED44z82WjqaJ6tav5Mp-67">
          <mxGeometry x="31" y="106.5" width="100" height="100" as="geometry">
            <mxPoint x="14" y="145" as="sourcePoint" />
            <mxPoint x="114" y="45" as="targetPoint" />
          </mxGeometry>
        </mxCell>
        <mxCell id="wED44z82WjqaJ6tav5Mp-79" value="" style="edgeStyle=none;endArrow=none;strokeWidth=3;strokeColor=#F08E81;html=1;rounded=0;" edge="1" parent="1" source="wED44z82WjqaJ6tav5Mp-3" target="wED44z82WjqaJ6tav5Mp-68">
          <mxGeometry x="31" y="106.5" width="100" height="100" as="geometry">
            <mxPoint x="14" y="145" as="sourcePoint" />
            <mxPoint x="114" y="45" as="targetPoint" />
          </mxGeometry>
        </mxCell>
        <mxCell id="wED44z82WjqaJ6tav5Mp-80" value="" style="edgeStyle=none;endArrow=none;strokeWidth=3;strokeColor=#F08E81;html=1;rounded=0;" edge="1" parent="1" source="wED44z82WjqaJ6tav5Mp-3" target="wED44z82WjqaJ6tav5Mp-69">
          <mxGeometry x="31" y="106.5" width="100" height="100" as="geometry">
            <mxPoint x="14" y="145" as="sourcePoint" />
            <mxPoint x="114" y="45" as="targetPoint" />
          </mxGeometry>
        </mxCell>
        <mxCell id="wED44z82WjqaJ6tav5Mp-81" value="" style="edgeStyle=none;endArrow=none;strokeWidth=3;strokeColor=#F08E81;html=1;rounded=0;" edge="1" parent="1" source="wED44z82WjqaJ6tav5Mp-3" target="wED44z82WjqaJ6tav5Mp-70">
          <mxGeometry x="31" y="106.5" width="100" height="100" as="geometry">
            <mxPoint x="14" y="145" as="sourcePoint" />
            <mxPoint x="114" y="45" as="targetPoint" />
          </mxGeometry>
        </mxCell>
        <mxCell id="wED44z82WjqaJ6tav5Mp-82" value="" style="edgeStyle=none;endArrow=none;strokeWidth=3;strokeColor=#F08E81;html=1;rounded=0;" edge="1" parent="1" source="wED44z82WjqaJ6tav5Mp-3" target="wED44z82WjqaJ6tav5Mp-63">
          <mxGeometry x="31" y="106.5" width="100" height="100" as="geometry">
            <mxPoint x="14" y="145" as="sourcePoint" />
            <mxPoint x="114" y="45" as="targetPoint" />
          </mxGeometry>
        </mxCell>
        <mxCell id="wED44z82WjqaJ6tav5Mp-83" value="" style="edgeStyle=none;endArrow=none;strokeWidth=3;strokeColor=#F08E81;html=1;rounded=0;" edge="1" parent="1" source="wED44z82WjqaJ6tav5Mp-3" target="wED44z82WjqaJ6tav5Mp-73">
          <mxGeometry x="31" y="106.5" width="100" height="100" as="geometry">
            <mxPoint x="14" y="145" as="sourcePoint" />
            <mxPoint x="114" y="45" as="targetPoint" />
          </mxGeometry>
        </mxCell>
        <mxCell id="wED44z82WjqaJ6tav5Mp-84" value="" style="edgeStyle=none;endArrow=none;strokeWidth=3;strokeColor=#F08E81;html=1;rounded=0;" edge="1" parent="1" source="wED44z82WjqaJ6tav5Mp-3" target="wED44z82WjqaJ6tav5Mp-72">
          <mxGeometry x="31" y="106.5" width="100" height="100" as="geometry">
            <mxPoint x="14" y="145" as="sourcePoint" />
            <mxPoint x="114" y="45" as="targetPoint" />
          </mxGeometry>
        </mxCell>
        <mxCell id="wED44z82WjqaJ6tav5Mp-85" value="" style="edgeStyle=none;endArrow=none;strokeWidth=3;strokeColor=#F08E81;html=1;rounded=0;" edge="1" parent="1" source="wED44z82WjqaJ6tav5Mp-3" target="wED44z82WjqaJ6tav5Mp-71">
          <mxGeometry x="31" y="106.5" width="100" height="100" as="geometry">
            <mxPoint x="14" y="145" as="sourcePoint" />
            <mxPoint x="114" y="45" as="targetPoint" />
          </mxGeometry>
        </mxCell>
        <mxCell id="wED44z82WjqaJ6tav5Mp-86" value="Perch" style="rounded=1;fillColor=#64BBE2;strokeColor=none;strokeWidth=3;shadow=0;html=1;fontColor=#FFFFFF;" vertex="1" parent="1">
          <mxGeometry x="1764" y="705" width="120" height="40" as="geometry" />
        </mxCell>
        <mxCell id="wED44z82WjqaJ6tav5Mp-87" value="Mackerel" style="rounded=1;fillColor=#64BBE2;strokeColor=none;strokeWidth=3;shadow=0;html=1;fontColor=#FFFFFF;" vertex="1" parent="1">
          <mxGeometry x="1794" y="635" width="120" height="40" as="geometry" />
        </mxCell>
        <mxCell id="wED44z82WjqaJ6tav5Mp-88" value="Tuna" style="rounded=1;fillColor=#64BBE2;strokeColor=none;strokeWidth=3;shadow=0;html=1;fontColor=#FFFFFF;" vertex="1" parent="1">
          <mxGeometry x="1919" y="605" width="120" height="40" as="geometry" />
        </mxCell>
        <mxCell id="wED44z82WjqaJ6tav5Mp-89" value="Shark" style="rounded=1;fillColor=#64BBE2;strokeColor=none;strokeWidth=3;shadow=0;html=1;fontColor=#FFFFFF;" vertex="1" parent="1">
          <mxGeometry x="2049" y="660" width="120" height="40" as="geometry" />
        </mxCell>
        <mxCell id="wED44z82WjqaJ6tav5Mp-90" value="Whale" style="rounded=1;fillColor=#64BBE2;strokeColor=none;strokeWidth=3;shadow=0;html=1;fontColor=#FFFFFF;" vertex="1" parent="1">
          <mxGeometry x="561.5" y="405" width="120" height="40" as="geometry" />
        </mxCell>
        <mxCell id="wED44z82WjqaJ6tav5Mp-91" value="Bass" style="rounded=1;fillColor=#64BBE2;strokeColor=none;strokeWidth=3;shadow=0;html=1;fontColor=#FFFFFF;" vertex="1" parent="1">
          <mxGeometry x="2113" y="730" width="120" height="40" as="geometry" />
        </mxCell>
        <mxCell id="wED44z82WjqaJ6tav5Mp-92" value="Eel" style="rounded=1;fillColor=#64BBE2;strokeColor=none;strokeWidth=3;shadow=0;html=1;fontColor=#FFFFFF;" vertex="1" parent="1">
          <mxGeometry x="2113" y="835" width="120" height="40" as="geometry" />
        </mxCell>
        <mxCell id="wED44z82WjqaJ6tav5Mp-93" value="Ray" style="rounded=1;fillColor=#64BBE2;strokeColor=none;strokeWidth=3;shadow=0;html=1;fontColor=#FFFFFF;" vertex="1" parent="1">
          <mxGeometry x="2013" y="928.5" width="120" height="40" as="geometry" />
        </mxCell>
        <mxCell id="wED44z82WjqaJ6tav5Mp-94" value="Trout" style="rounded=1;fillColor=#64BBE2;strokeColor=none;strokeWidth=3;shadow=0;html=1;fontColor=#FFFFFF;" vertex="1" parent="1">
          <mxGeometry x="1863" y="928.5" width="120" height="40" as="geometry" />
        </mxCell>
        <mxCell id="wED44z82WjqaJ6tav5Mp-95" value="Catfish" style="rounded=1;fillColor=#64BBE2;strokeColor=none;strokeWidth=3;shadow=0;html=1;fontColor=#FFFFFF;" vertex="1" parent="1">
          <mxGeometry x="1739" y="830" width="120" height="40" as="geometry" />
        </mxCell>
        <mxCell id="wED44z82WjqaJ6tav5Mp-96" value="" style="edgeStyle=none;endArrow=none;strokeWidth=3;strokeColor=#64BBE2;html=1;rounded=0;" edge="1" parent="1" source="wED44z82WjqaJ6tav5Mp-4" target="wED44z82WjqaJ6tav5Mp-86">
          <mxGeometry x="-24" y="196.5" width="100" height="100" as="geometry">
            <mxPoint x="-41" y="235" as="sourcePoint" />
            <mxPoint x="59" y="135" as="targetPoint" />
          </mxGeometry>
        </mxCell>
        <mxCell id="wED44z82WjqaJ6tav5Mp-97" value="" style="edgeStyle=none;endArrow=none;strokeWidth=3;strokeColor=#64BBE2;html=1;rounded=0;" edge="1" parent="1" source="wED44z82WjqaJ6tav5Mp-4" target="wED44z82WjqaJ6tav5Mp-87">
          <mxGeometry x="-24" y="196.5" width="100" height="100" as="geometry">
            <mxPoint x="-41" y="235" as="sourcePoint" />
            <mxPoint x="59" y="135" as="targetPoint" />
          </mxGeometry>
        </mxCell>
        <mxCell id="wED44z82WjqaJ6tav5Mp-98" value="" style="edgeStyle=none;endArrow=none;strokeWidth=3;strokeColor=#64BBE2;html=1;rounded=0;" edge="1" parent="1" source="wED44z82WjqaJ6tav5Mp-4" target="wED44z82WjqaJ6tav5Mp-88">
          <mxGeometry x="-24" y="196.5" width="100" height="100" as="geometry">
            <mxPoint x="-41" y="235" as="sourcePoint" />
            <mxPoint x="59" y="135" as="targetPoint" />
          </mxGeometry>
        </mxCell>
        <mxCell id="wED44z82WjqaJ6tav5Mp-99" value="" style="edgeStyle=none;endArrow=none;strokeWidth=3;strokeColor=#64BBE2;html=1;rounded=0;" edge="1" parent="1" source="wED44z82WjqaJ6tav5Mp-4" target="wED44z82WjqaJ6tav5Mp-89">
          <mxGeometry x="-24" y="196.5" width="100" height="100" as="geometry">
            <mxPoint x="-41" y="235" as="sourcePoint" />
            <mxPoint x="59" y="135" as="targetPoint" />
          </mxGeometry>
        </mxCell>
        <mxCell id="wED44z82WjqaJ6tav5Mp-100" value="" style="edgeStyle=none;endArrow=none;strokeWidth=3;strokeColor=#64BBE2;html=1;rounded=0;" edge="1" parent="1" source="wED44z82WjqaJ6tav5Mp-4" target="wED44z82WjqaJ6tav5Mp-91">
          <mxGeometry x="-24" y="196.5" width="100" height="100" as="geometry">
            <mxPoint x="-41" y="235" as="sourcePoint" />
            <mxPoint x="59" y="135" as="targetPoint" />
          </mxGeometry>
        </mxCell>
        <mxCell id="wED44z82WjqaJ6tav5Mp-101" value="" style="edgeStyle=none;endArrow=none;strokeWidth=3;strokeColor=#64BBE2;html=1;rounded=0;" edge="1" parent="1" source="wED44z82WjqaJ6tav5Mp-4" target="wED44z82WjqaJ6tav5Mp-92">
          <mxGeometry x="-24" y="196.5" width="100" height="100" as="geometry">
            <mxPoint x="-41" y="235" as="sourcePoint" />
            <mxPoint x="59" y="135" as="targetPoint" />
          </mxGeometry>
        </mxCell>
        <mxCell id="wED44z82WjqaJ6tav5Mp-102" value="" style="edgeStyle=none;endArrow=none;strokeWidth=3;strokeColor=#64BBE2;html=1;rounded=0;" edge="1" parent="1" source="wED44z82WjqaJ6tav5Mp-4" target="wED44z82WjqaJ6tav5Mp-93">
          <mxGeometry x="-24" y="196.5" width="100" height="100" as="geometry">
            <mxPoint x="-41" y="235" as="sourcePoint" />
            <mxPoint x="59" y="135" as="targetPoint" />
          </mxGeometry>
        </mxCell>
        <mxCell id="wED44z82WjqaJ6tav5Mp-103" value="" style="edgeStyle=none;endArrow=none;strokeWidth=3;strokeColor=#64BBE2;html=1;rounded=0;" edge="1" parent="1" source="wED44z82WjqaJ6tav5Mp-4" target="wED44z82WjqaJ6tav5Mp-94">
          <mxGeometry x="-24" y="196.5" width="100" height="100" as="geometry">
            <mxPoint x="-41" y="235" as="sourcePoint" />
            <mxPoint x="59" y="135" as="targetPoint" />
          </mxGeometry>
        </mxCell>
        <mxCell id="wED44z82WjqaJ6tav5Mp-104" value="" style="edgeStyle=none;endArrow=none;strokeWidth=3;strokeColor=#64BBE2;html=1;rounded=0;" edge="1" parent="1" source="wED44z82WjqaJ6tav5Mp-4" target="wED44z82WjqaJ6tav5Mp-95">
          <mxGeometry x="-24" y="196.5" width="100" height="100" as="geometry">
            <mxPoint x="-41" y="235" as="sourcePoint" />
            <mxPoint x="59" y="135" as="targetPoint" />
          </mxGeometry>
        </mxCell>
        <mxCell id="wED44z82WjqaJ6tav5Mp-105" value="Streptococcus" style="rounded=1;fillColor=#a29dc5;strokeColor=none;strokeWidth=3;shadow=0;html=1;fontColor=#FFFFFF;" vertex="1" parent="1">
          <mxGeometry x="1629" y="1025.5" width="120" height="40" as="geometry" />
        </mxCell>
        <mxCell id="wED44z82WjqaJ6tav5Mp-106" value="Echericia Colli" style="rounded=1;fillColor=#a29dc5;strokeColor=none;strokeWidth=3;shadow=0;html=1;fontColor=#FFFFFF;" vertex="1" parent="1">
          <mxGeometry x="1614" y="1240" width="120" height="40" as="geometry" />
        </mxCell>
        <mxCell id="wED44z82WjqaJ6tav5Mp-107" value="Lactobacyllus" style="rounded=1;fillColor=#a29dc5;strokeColor=none;strokeWidth=3;shadow=0;html=1;fontColor=#FFFFFF;" vertex="1" parent="1">
          <mxGeometry x="1784" y="1052.5" width="120" height="40" as="geometry" />
        </mxCell>
        <mxCell id="wED44z82WjqaJ6tav5Mp-108" value="Helicobacter" style="rounded=1;fillColor=#a29dc5;strokeColor=none;strokeWidth=3;shadow=0;html=1;fontColor=#FFFFFF;" vertex="1" parent="1">
          <mxGeometry x="1884" y="1132.5" width="120" height="40" as="geometry" />
        </mxCell>
        <mxCell id="wED44z82WjqaJ6tav5Mp-109" value="Bifidobacterium" style="rounded=1;fillColor=#a29dc5;strokeColor=none;strokeWidth=3;shadow=0;html=1;fontColor=#FFFFFF;" vertex="1" parent="1">
          <mxGeometry x="1804" y="1270" width="120" height="40" as="geometry" />
        </mxCell>
        <mxCell id="wED44z82WjqaJ6tav5Mp-110" value="Staphyllococcus" style="rounded=1;fillColor=#a29dc5;strokeColor=none;strokeWidth=3;shadow=0;html=1;fontColor=#FFFFFF;" vertex="1" parent="1">
          <mxGeometry x="1534" y="1150" width="120" height="40" as="geometry" />
        </mxCell>
        <mxCell id="wED44z82WjqaJ6tav5Mp-111" value="" style="edgeStyle=none;endArrow=none;strokeWidth=3;strokeColor=#A29DC5;html=1;rounded=0;" edge="1" parent="1" source="wED44z82WjqaJ6tav5Mp-5" target="wED44z82WjqaJ6tav5Mp-108">
          <mxGeometry x="251" y="-103.5" width="100" height="100" as="geometry">
            <mxPoint x="234" y="-65" as="sourcePoint" />
            <mxPoint x="334" y="-165" as="targetPoint" />
          </mxGeometry>
        </mxCell>
        <mxCell id="wED44z82WjqaJ6tav5Mp-112" value="" style="edgeStyle=none;endArrow=none;strokeWidth=3;strokeColor=#A29DC5;html=1;rounded=0;" edge="1" parent="1" source="wED44z82WjqaJ6tav5Mp-5" target="wED44z82WjqaJ6tav5Mp-109">
          <mxGeometry x="251" y="-103.5" width="100" height="100" as="geometry">
            <mxPoint x="234" y="-65" as="sourcePoint" />
            <mxPoint x="334" y="-165" as="targetPoint" />
          </mxGeometry>
        </mxCell>
        <mxCell id="wED44z82WjqaJ6tav5Mp-113" value="" style="edgeStyle=none;endArrow=none;strokeWidth=3;strokeColor=#A29DC5;html=1;rounded=0;" edge="1" parent="1" source="wED44z82WjqaJ6tav5Mp-5" target="wED44z82WjqaJ6tav5Mp-106">
          <mxGeometry x="251" y="-103.5" width="100" height="100" as="geometry">
            <mxPoint x="234" y="-65" as="sourcePoint" />
            <mxPoint x="334" y="-165" as="targetPoint" />
          </mxGeometry>
        </mxCell>
        <mxCell id="wED44z82WjqaJ6tav5Mp-114" value="" style="edgeStyle=none;endArrow=none;strokeWidth=3;strokeColor=#A29DC5;html=1;rounded=0;" edge="1" parent="1" source="wED44z82WjqaJ6tav5Mp-5" target="wED44z82WjqaJ6tav5Mp-110">
          <mxGeometry x="251" y="-103.5" width="100" height="100" as="geometry">
            <mxPoint x="234" y="-65" as="sourcePoint" />
            <mxPoint x="334" y="-165" as="targetPoint" />
          </mxGeometry>
        </mxCell>
        <mxCell id="wED44z82WjqaJ6tav5Mp-115" value="" style="edgeStyle=none;endArrow=none;strokeWidth=3;strokeColor=#A29DC5;html=1;rounded=0;" edge="1" parent="1" source="wED44z82WjqaJ6tav5Mp-5" target="wED44z82WjqaJ6tav5Mp-105">
          <mxGeometry x="251" y="-103.5" width="100" height="100" as="geometry">
            <mxPoint x="234" y="-65" as="sourcePoint" />
            <mxPoint x="334" y="-165" as="targetPoint" />
          </mxGeometry>
        </mxCell>
        <mxCell id="wED44z82WjqaJ6tav5Mp-116" value="Zygomycota" style="rounded=1;fillColor=#f5af58;strokeColor=none;strokeWidth=3;shadow=0;html=1;fontColor=#FFFFFF;" vertex="1" parent="1">
          <mxGeometry x="1341.5" y="1212.5" width="120" height="40" as="geometry" />
        </mxCell>
        <mxCell id="wED44z82WjqaJ6tav5Mp-117" value="Script Writing" style="rounded=1;fillColor=#f5af58;strokeColor=none;strokeWidth=3;shadow=0;html=1;fontColor=#FFFFFF;" vertex="1" parent="1">
          <mxGeometry x="1356.5" y="1285" width="120" height="40" as="geometry" />
        </mxCell>
        <mxCell id="wED44z82WjqaJ6tav5Mp-118" value="Ascomycota" style="rounded=1;fillColor=#f5af58;strokeColor=none;strokeWidth=3;shadow=0;html=1;fontColor=#FFFFFF;" vertex="1" parent="1">
          <mxGeometry x="1331.5" y="1350" width="120" height="40" as="geometry" />
        </mxCell>
        <mxCell id="wED44z82WjqaJ6tav5Mp-119" value="Basidiomycota" style="rounded=1;fillColor=#f5af58;strokeColor=none;strokeWidth=3;shadow=0;html=1;fontColor=#FFFFFF;" vertex="1" parent="1">
          <mxGeometry x="1266.5" y="1410" width="120" height="40" as="geometry" />
        </mxCell>
        <mxCell id="wED44z82WjqaJ6tav5Mp-120" value="Mushroom" style="rounded=1;fillColor=#f5af58;strokeColor=none;strokeWidth=3;shadow=0;html=1;fontColor=#FFFFFF;" vertex="1" parent="1">
          <mxGeometry x="1166.5" y="1467.5" width="120" height="40" as="geometry" />
        </mxCell>
        <mxCell id="wED44z82WjqaJ6tav5Mp-121" value="Lichen" style="rounded=1;fillColor=#f5af58;strokeColor=none;strokeWidth=3;shadow=0;html=1;fontColor=#FFFFFF;" vertex="1" parent="1">
          <mxGeometry x="1066.5" y="1410" width="120" height="40" as="geometry" />
        </mxCell>
        <mxCell id="wED44z82WjqaJ6tav5Mp-122" value="Bread Mold" style="rounded=1;fillColor=#f5af58;strokeColor=none;strokeWidth=3;shadow=0;html=1;fontColor=#FFFFFF;" vertex="1" parent="1">
          <mxGeometry x="986.5" y="1350" width="120" height="40" as="geometry" />
        </mxCell>
        <mxCell id="wED44z82WjqaJ6tav5Mp-123" value="Yeast" style="rounded=1;fillColor=#f5af58;strokeColor=none;strokeWidth=3;shadow=0;html=1;fontColor=#FFFFFF;" vertex="1" parent="1">
          <mxGeometry x="946.5" y="1277.5" width="120" height="40" as="geometry" />
        </mxCell>
        <mxCell id="wED44z82WjqaJ6tav5Mp-124" value="Zygospore" style="rounded=1;fillColor=#f5af58;strokeColor=none;strokeWidth=3;shadow=0;html=1;fontColor=#FFFFFF;" vertex="1" parent="1">
          <mxGeometry x="951.5" y="1212.5" width="120" height="40" as="geometry" />
        </mxCell>
        <mxCell id="wED44z82WjqaJ6tav5Mp-125" value="Truffle" style="rounded=1;fillColor=#f5af58;strokeColor=none;strokeWidth=3;shadow=0;html=1;fontColor=#FFFFFF;" vertex="1" parent="1">
          <mxGeometry x="1011.5" y="1147.5" width="120" height="40" as="geometry" />
        </mxCell>
        <mxCell id="wED44z82WjqaJ6tav5Mp-126" value="Chytrid" style="rounded=1;fillColor=#f5af58;strokeColor=none;strokeWidth=3;shadow=0;html=1;fontColor=#FFFFFF;" vertex="1" parent="1">
          <mxGeometry x="1281.5" y="1132.5" width="120" height="40" as="geometry" />
        </mxCell>
        <mxCell id="wED44z82WjqaJ6tav5Mp-127" value="" style="edgeStyle=none;endArrow=none;strokeWidth=3;strokeColor=#F5AF58;html=1;rounded=0;" edge="1" parent="1" source="wED44z82WjqaJ6tav5Mp-6" target="wED44z82WjqaJ6tav5Mp-126">
          <mxGeometry x="243.5" y="39" width="100" height="100" as="geometry">
            <mxPoint x="226.5" y="77.5" as="sourcePoint" />
            <mxPoint x="326.5" y="-22.5" as="targetPoint" />
          </mxGeometry>
        </mxCell>
        <mxCell id="wED44z82WjqaJ6tav5Mp-128" value="" style="edgeStyle=none;endArrow=none;strokeWidth=3;strokeColor=#F5AF58;html=1;rounded=0;" edge="1" parent="1" source="wED44z82WjqaJ6tav5Mp-6" target="wED44z82WjqaJ6tav5Mp-116">
          <mxGeometry x="243.5" y="39" width="100" height="100" as="geometry">
            <mxPoint x="226.5" y="77.5" as="sourcePoint" />
            <mxPoint x="326.5" y="-22.5" as="targetPoint" />
          </mxGeometry>
        </mxCell>
        <mxCell id="wED44z82WjqaJ6tav5Mp-129" value="" style="edgeStyle=none;endArrow=none;strokeWidth=3;strokeColor=#F5AF58;html=1;rounded=0;" edge="1" parent="1" source="wED44z82WjqaJ6tav5Mp-6" target="wED44z82WjqaJ6tav5Mp-117">
          <mxGeometry x="243.5" y="39" width="100" height="100" as="geometry">
            <mxPoint x="226.5" y="77.5" as="sourcePoint" />
            <mxPoint x="326.5" y="-22.5" as="targetPoint" />
          </mxGeometry>
        </mxCell>
        <mxCell id="wED44z82WjqaJ6tav5Mp-130" value="" style="edgeStyle=none;endArrow=none;strokeWidth=3;strokeColor=#F5AF58;html=1;rounded=0;" edge="1" parent="1" source="wED44z82WjqaJ6tav5Mp-6" target="wED44z82WjqaJ6tav5Mp-118">
          <mxGeometry x="243.5" y="39" width="100" height="100" as="geometry">
            <mxPoint x="226.5" y="77.5" as="sourcePoint" />
            <mxPoint x="326.5" y="-22.5" as="targetPoint" />
          </mxGeometry>
        </mxCell>
        <mxCell id="wED44z82WjqaJ6tav5Mp-131" value="" style="edgeStyle=none;endArrow=none;strokeWidth=3;strokeColor=#F5AF58;html=1;rounded=0;" edge="1" parent="1" source="wED44z82WjqaJ6tav5Mp-6" target="wED44z82WjqaJ6tav5Mp-119">
          <mxGeometry x="243.5" y="39" width="100" height="100" as="geometry">
            <mxPoint x="226.5" y="77.5" as="sourcePoint" />
            <mxPoint x="326.5" y="-22.5" as="targetPoint" />
          </mxGeometry>
        </mxCell>
        <mxCell id="wED44z82WjqaJ6tav5Mp-132" value="" style="edgeStyle=none;endArrow=none;strokeWidth=3;strokeColor=#F5AF58;html=1;rounded=0;" edge="1" parent="1" source="wED44z82WjqaJ6tav5Mp-6" target="wED44z82WjqaJ6tav5Mp-120">
          <mxGeometry x="243.5" y="39" width="100" height="100" as="geometry">
            <mxPoint x="226.5" y="77.5" as="sourcePoint" />
            <mxPoint x="326.5" y="-22.5" as="targetPoint" />
          </mxGeometry>
        </mxCell>
        <mxCell id="wED44z82WjqaJ6tav5Mp-133" value="" style="edgeStyle=none;endArrow=none;strokeWidth=3;strokeColor=#F5AF58;html=1;rounded=0;" edge="1" parent="1" source="wED44z82WjqaJ6tav5Mp-6" target="wED44z82WjqaJ6tav5Mp-121">
          <mxGeometry x="243.5" y="39" width="100" height="100" as="geometry">
            <mxPoint x="226.5" y="77.5" as="sourcePoint" />
            <mxPoint x="326.5" y="-22.5" as="targetPoint" />
          </mxGeometry>
        </mxCell>
        <mxCell id="wED44z82WjqaJ6tav5Mp-134" value="" style="edgeStyle=none;endArrow=none;strokeWidth=3;strokeColor=#F5AF58;html=1;rounded=0;" edge="1" parent="1" source="wED44z82WjqaJ6tav5Mp-6" target="wED44z82WjqaJ6tav5Mp-122">
          <mxGeometry x="243.5" y="39" width="100" height="100" as="geometry">
            <mxPoint x="226.5" y="77.5" as="sourcePoint" />
            <mxPoint x="326.5" y="-22.5" as="targetPoint" />
          </mxGeometry>
        </mxCell>
        <mxCell id="wED44z82WjqaJ6tav5Mp-135" value="" style="edgeStyle=none;endArrow=none;strokeWidth=3;strokeColor=#F5AF58;html=1;rounded=0;" edge="1" parent="1" source="wED44z82WjqaJ6tav5Mp-6" target="wED44z82WjqaJ6tav5Mp-123">
          <mxGeometry x="243.5" y="39" width="100" height="100" as="geometry">
            <mxPoint x="226.5" y="77.5" as="sourcePoint" />
            <mxPoint x="326.5" y="-22.5" as="targetPoint" />
          </mxGeometry>
        </mxCell>
        <mxCell id="wED44z82WjqaJ6tav5Mp-136" value="" style="edgeStyle=none;endArrow=none;strokeWidth=3;strokeColor=#F5AF58;html=1;rounded=0;" edge="1" parent="1" source="wED44z82WjqaJ6tav5Mp-6" target="wED44z82WjqaJ6tav5Mp-124">
          <mxGeometry x="243.5" y="39" width="100" height="100" as="geometry">
            <mxPoint x="226.5" y="77.5" as="sourcePoint" />
            <mxPoint x="326.5" y="-22.5" as="targetPoint" />
          </mxGeometry>
        </mxCell>
        <mxCell id="wED44z82WjqaJ6tav5Mp-137" value="" style="edgeStyle=none;endArrow=none;strokeWidth=3;strokeColor=#F5AF58;html=1;rounded=0;" edge="1" parent="1" source="wED44z82WjqaJ6tav5Mp-6" target="wED44z82WjqaJ6tav5Mp-125">
          <mxGeometry x="243.5" y="39" width="100" height="100" as="geometry">
            <mxPoint x="226.5" y="77.5" as="sourcePoint" />
            <mxPoint x="326.5" y="-22.5" as="targetPoint" />
          </mxGeometry>
        </mxCell>
        <mxCell id="wED44z82WjqaJ6tav5Mp-138" value="Philadendron" style="rounded=1;fillColor=#f08e81;strokeColor=none;strokeWidth=3;shadow=0;html=1;fontColor=#FFFFFF;" vertex="1" parent="1">
          <mxGeometry x="606.5" y="945" width="120" height="40" as="geometry" />
        </mxCell>
        <mxCell id="wED44z82WjqaJ6tav5Mp-139" value="Dahlia" style="rounded=1;fillColor=#f08e81;strokeColor=none;strokeWidth=3;shadow=0;html=1;fontColor=#FFFFFF;" vertex="1" parent="1">
          <mxGeometry x="471.5" y="950" width="120" height="40" as="geometry" />
        </mxCell>
        <mxCell id="wED44z82WjqaJ6tav5Mp-140" value="Petunia" style="rounded=1;fillColor=#f08e81;strokeColor=none;strokeWidth=3;shadow=0;html=1;fontColor=#FFFFFF;" vertex="1" parent="1">
          <mxGeometry x="406.5" y="1005" width="120" height="40" as="geometry" />
        </mxCell>
        <mxCell id="wED44z82WjqaJ6tav5Mp-141" value="Cactus" style="rounded=1;fillColor=#f08e81;strokeColor=none;strokeWidth=3;shadow=0;html=1;fontColor=#FFFFFF;" vertex="1" parent="1">
          <mxGeometry x="351.5" y="1065" width="120" height="40" as="geometry" />
        </mxCell>
        <mxCell id="wED44z82WjqaJ6tav5Mp-142" value="Tulip" style="rounded=1;fillColor=#f08e81;strokeColor=none;strokeWidth=3;shadow=0;html=1;fontColor=#FFFFFF;" vertex="1" parent="1">
          <mxGeometry x="331.5" y="1120" width="120" height="40" as="geometry" />
        </mxCell>
        <mxCell id="wED44z82WjqaJ6tav5Mp-143" value="Lilac" style="rounded=1;fillColor=#f08e81;strokeColor=none;strokeWidth=3;shadow=0;html=1;fontColor=#FFFFFF;" vertex="1" parent="1">
          <mxGeometry x="346.5" y="1185" width="120" height="40" as="geometry" />
        </mxCell>
        <mxCell id="wED44z82WjqaJ6tav5Mp-144" value="Dandelion" style="rounded=1;fillColor=#f08e81;strokeColor=none;strokeWidth=3;shadow=0;html=1;fontColor=#FFFFFF;" vertex="1" parent="1">
          <mxGeometry x="381.5" y="1247.5" width="120" height="40" as="geometry" />
        </mxCell>
        <mxCell id="wED44z82WjqaJ6tav5Mp-145" value="Poppy" style="rounded=1;fillColor=#f08e81;strokeColor=none;strokeWidth=3;shadow=0;html=1;fontColor=#FFFFFF;" vertex="1" parent="1">
          <mxGeometry x="451.5" y="1297.5" width="120" height="40" as="geometry" />
        </mxCell>
        <mxCell id="wED44z82WjqaJ6tav5Mp-146" value="Gerbera" style="rounded=1;fillColor=#f08e81;strokeColor=none;strokeWidth=3;shadow=0;html=1;fontColor=#FFFFFF;" vertex="1" parent="1">
          <mxGeometry x="561.5" y="1352.5" width="120" height="40" as="geometry" />
        </mxCell>
        <mxCell id="wED44z82WjqaJ6tav5Mp-147" value="Orchid" style="rounded=1;fillColor=#f08e81;strokeColor=none;strokeWidth=3;shadow=0;html=1;fontColor=#FFFFFF;" vertex="1" parent="1">
          <mxGeometry x="686.5" y="1287.5" width="120" height="40" as="geometry" />
        </mxCell>
        <mxCell id="wED44z82WjqaJ6tav5Mp-148" value="Gladiola" style="rounded=1;fillColor=#f08e81;strokeColor=none;strokeWidth=3;shadow=0;html=1;fontColor=#FFFFFF;" vertex="1" parent="1">
          <mxGeometry x="746.5" y="1220" width="120" height="40" as="geometry" />
        </mxCell>
        <mxCell id="wED44z82WjqaJ6tav5Mp-149" value="Rose" style="rounded=1;fillColor=#f08e81;strokeColor=none;strokeWidth=3;shadow=0;html=1;fontColor=#FFFFFF;" vertex="1" parent="1">
          <mxGeometry x="766.5" y="1124.5" width="120" height="40" as="geometry" />
        </mxCell>
        <mxCell id="wED44z82WjqaJ6tav5Mp-150" value="" style="edgeStyle=none;endArrow=none;strokeWidth=3;strokeColor=#F08E81;html=1;rounded=0;" edge="1" parent="1" source="wED44z82WjqaJ6tav5Mp-7" target="wED44z82WjqaJ6tav5Mp-149">
          <mxGeometry x="188.5" y="51.5" width="100" height="100" as="geometry">
            <mxPoint x="171.5" y="90" as="sourcePoint" />
            <mxPoint x="271.5" y="-10" as="targetPoint" />
          </mxGeometry>
        </mxCell>
        <mxCell id="wED44z82WjqaJ6tav5Mp-151" value="" style="edgeStyle=none;endArrow=none;strokeWidth=3;strokeColor=#F08E81;html=1;rounded=0;" edge="1" parent="1" source="wED44z82WjqaJ6tav5Mp-7" target="wED44z82WjqaJ6tav5Mp-138">
          <mxGeometry x="188.5" y="51.5" width="100" height="100" as="geometry">
            <mxPoint x="171.5" y="90" as="sourcePoint" />
            <mxPoint x="271.5" y="-10" as="targetPoint" />
          </mxGeometry>
        </mxCell>
        <mxCell id="wED44z82WjqaJ6tav5Mp-152" value="" style="edgeStyle=none;endArrow=none;strokeWidth=3;strokeColor=#F08E81;html=1;rounded=0;" edge="1" parent="1" source="wED44z82WjqaJ6tav5Mp-7" target="wED44z82WjqaJ6tav5Mp-139">
          <mxGeometry x="188.5" y="51.5" width="100" height="100" as="geometry">
            <mxPoint x="171.5" y="90" as="sourcePoint" />
            <mxPoint x="271.5" y="-10" as="targetPoint" />
          </mxGeometry>
        </mxCell>
        <mxCell id="wED44z82WjqaJ6tav5Mp-153" value="" style="edgeStyle=none;endArrow=none;strokeWidth=3;strokeColor=#F08E81;html=1;rounded=0;" edge="1" parent="1" source="wED44z82WjqaJ6tav5Mp-7" target="wED44z82WjqaJ6tav5Mp-140">
          <mxGeometry x="188.5" y="51.5" width="100" height="100" as="geometry">
            <mxPoint x="171.5" y="90" as="sourcePoint" />
            <mxPoint x="271.5" y="-10" as="targetPoint" />
          </mxGeometry>
        </mxCell>
        <mxCell id="wED44z82WjqaJ6tav5Mp-154" value="" style="edgeStyle=none;endArrow=none;strokeWidth=3;strokeColor=#F08E81;html=1;rounded=0;" edge="1" parent="1" source="wED44z82WjqaJ6tav5Mp-7" target="wED44z82WjqaJ6tav5Mp-141">
          <mxGeometry x="188.5" y="51.5" width="100" height="100" as="geometry">
            <mxPoint x="171.5" y="90" as="sourcePoint" />
            <mxPoint x="271.5" y="-10" as="targetPoint" />
          </mxGeometry>
        </mxCell>
        <mxCell id="wED44z82WjqaJ6tav5Mp-155" value="" style="edgeStyle=none;endArrow=none;strokeWidth=3;strokeColor=#F08E81;html=1;rounded=0;" edge="1" parent="1" source="wED44z82WjqaJ6tav5Mp-7" target="wED44z82WjqaJ6tav5Mp-142">
          <mxGeometry x="188.5" y="51.5" width="100" height="100" as="geometry">
            <mxPoint x="171.5" y="90" as="sourcePoint" />
            <mxPoint x="271.5" y="-10" as="targetPoint" />
          </mxGeometry>
        </mxCell>
        <mxCell id="wED44z82WjqaJ6tav5Mp-156" value="" style="edgeStyle=none;endArrow=none;strokeWidth=3;strokeColor=#F08E81;html=1;rounded=0;" edge="1" parent="1" source="wED44z82WjqaJ6tav5Mp-7" target="wED44z82WjqaJ6tav5Mp-143">
          <mxGeometry x="188.5" y="51.5" width="100" height="100" as="geometry">
            <mxPoint x="171.5" y="90" as="sourcePoint" />
            <mxPoint x="271.5" y="-10" as="targetPoint" />
          </mxGeometry>
        </mxCell>
        <mxCell id="wED44z82WjqaJ6tav5Mp-157" value="" style="edgeStyle=none;endArrow=none;strokeWidth=3;strokeColor=#F08E81;html=1;rounded=0;" edge="1" parent="1" source="wED44z82WjqaJ6tav5Mp-7" target="wED44z82WjqaJ6tav5Mp-144">
          <mxGeometry x="188.5" y="51.5" width="100" height="100" as="geometry">
            <mxPoint x="171.5" y="90" as="sourcePoint" />
            <mxPoint x="271.5" y="-10" as="targetPoint" />
          </mxGeometry>
        </mxCell>
        <mxCell id="wED44z82WjqaJ6tav5Mp-158" value="" style="edgeStyle=none;endArrow=none;strokeWidth=3;strokeColor=#F08E81;html=1;rounded=0;" edge="1" parent="1" source="wED44z82WjqaJ6tav5Mp-7" target="wED44z82WjqaJ6tav5Mp-145">
          <mxGeometry x="188.5" y="51.5" width="100" height="100" as="geometry">
            <mxPoint x="171.5" y="90" as="sourcePoint" />
            <mxPoint x="271.5" y="-10" as="targetPoint" />
          </mxGeometry>
        </mxCell>
        <mxCell id="wED44z82WjqaJ6tav5Mp-159" value="" style="edgeStyle=none;endArrow=none;strokeWidth=3;strokeColor=#F08E81;html=1;rounded=0;" edge="1" parent="1" source="wED44z82WjqaJ6tav5Mp-7" target="wED44z82WjqaJ6tav5Mp-146">
          <mxGeometry x="188.5" y="51.5" width="100" height="100" as="geometry">
            <mxPoint x="171.5" y="90" as="sourcePoint" />
            <mxPoint x="271.5" y="-10" as="targetPoint" />
          </mxGeometry>
        </mxCell>
        <mxCell id="wED44z82WjqaJ6tav5Mp-160" value="" style="edgeStyle=none;endArrow=none;strokeWidth=3;strokeColor=#F08E81;html=1;rounded=0;" edge="1" parent="1" source="wED44z82WjqaJ6tav5Mp-7" target="wED44z82WjqaJ6tav5Mp-147">
          <mxGeometry x="188.5" y="51.5" width="100" height="100" as="geometry">
            <mxPoint x="171.5" y="90" as="sourcePoint" />
            <mxPoint x="271.5" y="-10" as="targetPoint" />
          </mxGeometry>
        </mxCell>
        <mxCell id="wED44z82WjqaJ6tav5Mp-161" value="" style="edgeStyle=none;endArrow=none;strokeWidth=3;strokeColor=#F08E81;html=1;rounded=0;" edge="1" parent="1" source="wED44z82WjqaJ6tav5Mp-7" target="wED44z82WjqaJ6tav5Mp-148">
          <mxGeometry x="188.5" y="51.5" width="100" height="100" as="geometry">
            <mxPoint x="171.5" y="90" as="sourcePoint" />
            <mxPoint x="271.5" y="-10" as="targetPoint" />
          </mxGeometry>
        </mxCell>
        <mxCell id="wED44z82WjqaJ6tav5Mp-162" style="edgeStyle=orthogonalEdgeStyle;rounded=0;html=1;exitX=0.75;exitY=0;entryX=0.75;entryY=0;startArrow=none;startFill=0;endArrow=block;endFill=1;jettySize=auto;orthogonalLoop=1;strokeColor=#12aab5;strokeWidth=6;fontSize=20;fontColor=#2F5B7C;" edge="1" parent="1" source="wED44z82WjqaJ6tav5Mp-65" target="wED44z82WjqaJ6tav5Mp-65">
          <mxGeometry relative="1" as="geometry" />
        </mxCell>
        <mxCell id="wED44z82WjqaJ6tav5Mp-163" value="&lt;font style=&quot;font-size: 30px;&quot;&gt;LIVING&lt;br&gt;BEINGS&lt;/font&gt;&lt;br&gt;" style="ellipse;whiteSpace=wrap;html=1;shadow=0;fontFamily=Helvetica;fontSize=30;fontColor=#2F5B7C;align=center;strokeColor=#2F5B7C;strokeWidth=6;fillColor=#FFFFFF;fontStyle=1;gradientColor=none;" vertex="1" parent="1">
          <mxGeometry x="944" y="615" width="270" height="270" as="geometry" />
        </mxCell>
        <mxCell id="wED44z82WjqaJ6tav5Mp-164" value="Tree" style="ellipse;whiteSpace=wrap;html=1;shadow=0;fontFamily=Helvetica;fontSize=20;fontColor=#FFFFFF;align=center;strokeWidth=3;fillColor=#736ca8;strokeColor=none;" vertex="1" parent="1">
          <mxGeometry x="295" y="660" width="120" height="120" as="geometry" />
        </mxCell>
        <mxCell id="wED44z82WjqaJ6tav5Mp-165" value="Organisation" style="rounded=1;fillColor=#a29dc5;strokeColor=none;strokeWidth=3;shadow=0;html=1;fontColor=#FFFFFF;" vertex="1" parent="1">
          <mxGeometry x="185" y="560" width="120" height="40" as="geometry" />
        </mxCell>
        <mxCell id="wED44z82WjqaJ6tav5Mp-166" value="Oak" style="rounded=1;fillColor=#a29dc5;strokeColor=none;strokeWidth=3;shadow=0;html=1;fontColor=#FFFFFF;" vertex="1" parent="1">
          <mxGeometry x="292.5" y="500" width="120" height="40" as="geometry" />
        </mxCell>
        <mxCell id="wED44z82WjqaJ6tav5Mp-167" value="Birch" style="rounded=1;fillColor=#a29dc5;strokeColor=none;strokeWidth=3;shadow=0;html=1;fontColor=#FFFFFF;" vertex="1" parent="1">
          <mxGeometry x="432.5" y="510" width="120" height="40" as="geometry" />
        </mxCell>
        <mxCell id="wED44z82WjqaJ6tav5Mp-168" value="Silverfern" style="rounded=1;fillColor=#a29dc5;strokeColor=none;strokeWidth=3;shadow=0;html=1;fontColor=#FFFFFF;" vertex="1" parent="1">
          <mxGeometry x="497.5" y="580" width="120" height="40" as="geometry" />
        </mxCell>
        <mxCell id="wED44z82WjqaJ6tav5Mp-169" value="Personal &#xa;Development" style="rounded=1;fillColor=#a29dc5;strokeColor=none;strokeWidth=3;shadow=0;html=1;fontColor=#FFFFFF;" vertex="1" parent="1">
          <mxGeometry x="522.5" y="660" width="120" height="40" as="geometry" />
        </mxCell>
        <mxCell id="wED44z82WjqaJ6tav5Mp-170" value="Pine" style="rounded=1;fillColor=#a29dc5;strokeColor=none;strokeWidth=3;shadow=0;html=1;fontColor=#FFFFFF;" vertex="1" parent="1">
          <mxGeometry x="50" y="580" width="120" height="40" as="geometry" />
        </mxCell>
        <mxCell id="wED44z82WjqaJ6tav5Mp-171" value="Lime" style="rounded=1;fillColor=#a29dc5;strokeColor=none;strokeWidth=3;shadow=0;html=1;fontColor=#FFFFFF;" vertex="1" parent="1">
          <mxGeometry x="455" y="770" width="120" height="40" as="geometry" />
        </mxCell>
        <mxCell id="wED44z82WjqaJ6tav5Mp-172" value="Chestnut" style="rounded=1;fillColor=#a29dc5;strokeColor=none;strokeWidth=3;shadow=0;html=1;fontColor=#FFFFFF;" vertex="1" parent="1">
          <mxGeometry x="405" y="830" width="120" height="40" as="geometry" />
        </mxCell>
        <mxCell id="wED44z82WjqaJ6tav5Mp-173" value="Beech" style="rounded=1;fillColor=#a29dc5;strokeColor=none;strokeWidth=3;shadow=0;html=1;fontColor=#FFFFFF;" vertex="1" parent="1">
          <mxGeometry x="265" y="830" width="120" height="40" as="geometry" />
        </mxCell>
        <mxCell id="wED44z82WjqaJ6tav5Mp-174" value="Poplar" style="rounded=1;fillColor=#a29dc5;strokeColor=none;strokeWidth=3;shadow=0;html=1;fontColor=#FFFFFF;" vertex="1" parent="1">
          <mxGeometry x="125" y="795" width="120" height="40" as="geometry" />
        </mxCell>
        <mxCell id="wED44z82WjqaJ6tav5Mp-175" value="Willow" style="rounded=1;fillColor=#a29dc5;strokeColor=none;strokeWidth=3;shadow=0;html=1;fontColor=#FFFFFF;" vertex="1" parent="1">
          <mxGeometry x="20" y="740" width="120" height="40" as="geometry" />
        </mxCell>
        <mxCell id="wED44z82WjqaJ6tav5Mp-176" value="" style="edgeStyle=none;endArrow=none;strokeWidth=3;strokeColor=#A29DC5;html=1;rounded=0;" edge="1" parent="1" source="wED44z82WjqaJ6tav5Mp-164" target="wED44z82WjqaJ6tav5Mp-165">
          <mxGeometry x="-1498" y="-303.5" width="100" height="100" as="geometry">
            <mxPoint x="-1515" y="-265" as="sourcePoint" />
            <mxPoint x="-1415" y="-365" as="targetPoint" />
          </mxGeometry>
        </mxCell>
        <mxCell id="wED44z82WjqaJ6tav5Mp-177" value="Acacia" style="rounded=1;fillColor=#a29dc5;strokeColor=none;strokeWidth=3;shadow=0;html=1;fontColor=#FFFFFF;" vertex="1" parent="1">
          <mxGeometry x="60" y="670" width="120" height="40" as="geometry" />
        </mxCell>
        <mxCell id="wED44z82WjqaJ6tav5Mp-178" value="" style="edgeStyle=none;endArrow=none;strokeWidth=3;strokeColor=#A29DC5;html=1;rounded=0;" edge="1" parent="1" source="wED44z82WjqaJ6tav5Mp-164" target="wED44z82WjqaJ6tav5Mp-166">
          <mxGeometry x="-1498" y="-303.5" width="100" height="100" as="geometry">
            <mxPoint x="-1515" y="-265" as="sourcePoint" />
            <mxPoint x="-1415" y="-365" as="targetPoint" />
          </mxGeometry>
        </mxCell>
        <mxCell id="wED44z82WjqaJ6tav5Mp-179" value="" style="edgeStyle=none;endArrow=none;strokeWidth=3;strokeColor=#A29DC5;html=1;rounded=0;" edge="1" parent="1" source="wED44z82WjqaJ6tav5Mp-164" target="wED44z82WjqaJ6tav5Mp-167">
          <mxGeometry x="-1498" y="-303.5" width="100" height="100" as="geometry">
            <mxPoint x="-1515" y="-265" as="sourcePoint" />
            <mxPoint x="-1415" y="-365" as="targetPoint" />
          </mxGeometry>
        </mxCell>
        <mxCell id="wED44z82WjqaJ6tav5Mp-180" value="" style="edgeStyle=none;endArrow=none;strokeWidth=3;strokeColor=#A29DC5;html=1;rounded=0;" edge="1" parent="1" source="wED44z82WjqaJ6tav5Mp-164" target="wED44z82WjqaJ6tav5Mp-168">
          <mxGeometry x="-1498" y="-303.5" width="100" height="100" as="geometry">
            <mxPoint x="-1515" y="-265" as="sourcePoint" />
            <mxPoint x="-1415" y="-365" as="targetPoint" />
          </mxGeometry>
        </mxCell>
        <mxCell id="wED44z82WjqaJ6tav5Mp-181" value="" style="edgeStyle=none;endArrow=none;strokeWidth=3;strokeColor=#A29DC5;html=1;rounded=0;" edge="1" parent="1" source="wED44z82WjqaJ6tav5Mp-164" target="wED44z82WjqaJ6tav5Mp-169">
          <mxGeometry x="-1498" y="-303.5" width="100" height="100" as="geometry">
            <mxPoint x="-1515" y="-265" as="sourcePoint" />
            <mxPoint x="-1415" y="-365" as="targetPoint" />
          </mxGeometry>
        </mxCell>
        <mxCell id="wED44z82WjqaJ6tav5Mp-182" value="" style="edgeStyle=none;endArrow=none;strokeWidth=3;strokeColor=#A29DC5;html=1;rounded=0;" edge="1" parent="1" source="wED44z82WjqaJ6tav5Mp-164" target="wED44z82WjqaJ6tav5Mp-170">
          <mxGeometry x="-1498" y="-303.5" width="100" height="100" as="geometry">
            <mxPoint x="-1515" y="-265" as="sourcePoint" />
            <mxPoint x="-1415" y="-365" as="targetPoint" />
          </mxGeometry>
        </mxCell>
        <mxCell id="wED44z82WjqaJ6tav5Mp-183" value="" style="edgeStyle=none;endArrow=none;strokeWidth=3;strokeColor=#A29DC5;html=1;rounded=0;" edge="1" parent="1" source="wED44z82WjqaJ6tav5Mp-164" target="wED44z82WjqaJ6tav5Mp-171">
          <mxGeometry x="-1498" y="-303.5" width="100" height="100" as="geometry">
            <mxPoint x="-1515" y="-265" as="sourcePoint" />
            <mxPoint x="-1415" y="-365" as="targetPoint" />
          </mxGeometry>
        </mxCell>
        <mxCell id="wED44z82WjqaJ6tav5Mp-184" value="" style="edgeStyle=none;endArrow=none;strokeWidth=3;strokeColor=#A29DC5;html=1;rounded=0;" edge="1" parent="1" source="wED44z82WjqaJ6tav5Mp-164" target="wED44z82WjqaJ6tav5Mp-172">
          <mxGeometry x="-1498" y="-303.5" width="100" height="100" as="geometry">
            <mxPoint x="-1515" y="-265" as="sourcePoint" />
            <mxPoint x="-1415" y="-365" as="targetPoint" />
          </mxGeometry>
        </mxCell>
        <mxCell id="wED44z82WjqaJ6tav5Mp-185" value="" style="edgeStyle=none;endArrow=none;strokeWidth=3;strokeColor=#A29DC5;html=1;rounded=0;" edge="1" parent="1" source="wED44z82WjqaJ6tav5Mp-164" target="wED44z82WjqaJ6tav5Mp-173">
          <mxGeometry x="-1498" y="-303.5" width="100" height="100" as="geometry">
            <mxPoint x="-1515" y="-265" as="sourcePoint" />
            <mxPoint x="-1415" y="-365" as="targetPoint" />
          </mxGeometry>
        </mxCell>
        <mxCell id="wED44z82WjqaJ6tav5Mp-186" value="" style="edgeStyle=none;endArrow=none;strokeWidth=3;strokeColor=#A29DC5;html=1;rounded=0;" edge="1" parent="1" source="wED44z82WjqaJ6tav5Mp-164" target="wED44z82WjqaJ6tav5Mp-174">
          <mxGeometry x="-1498" y="-303.5" width="100" height="100" as="geometry">
            <mxPoint x="-1515" y="-265" as="sourcePoint" />
            <mxPoint x="-1415" y="-365" as="targetPoint" />
          </mxGeometry>
        </mxCell>
        <mxCell id="wED44z82WjqaJ6tav5Mp-187" value="" style="edgeStyle=none;endArrow=none;strokeWidth=3;strokeColor=#A29DC5;html=1;rounded=0;" edge="1" parent="1" source="wED44z82WjqaJ6tav5Mp-164" target="wED44z82WjqaJ6tav5Mp-175">
          <mxGeometry x="-1498" y="-303.5" width="100" height="100" as="geometry">
            <mxPoint x="-1515" y="-265" as="sourcePoint" />
            <mxPoint x="-1415" y="-365" as="targetPoint" />
          </mxGeometry>
        </mxCell>
        <mxCell id="wED44z82WjqaJ6tav5Mp-188" value="" style="edgeStyle=none;endArrow=none;strokeWidth=3;strokeColor=#A29DC5;html=1;rounded=0;" edge="1" parent="1" source="wED44z82WjqaJ6tav5Mp-164" target="wED44z82WjqaJ6tav5Mp-177">
          <mxGeometry x="-1498" y="-303.5" width="100" height="100" as="geometry">
            <mxPoint x="-1515" y="-265" as="sourcePoint" />
            <mxPoint x="-1415" y="-365" as="targetPoint" />
          </mxGeometry>
        </mxCell>
        <mxCell id="wED44z82WjqaJ6tav5Mp-189" value="" style="edgeStyle=none;endArrow=none;strokeWidth=3;strokeColor=#A29DC5;html=1;rounded=0;" edge="1" parent="1" source="wED44z82WjqaJ6tav5Mp-5" target="wED44z82WjqaJ6tav5Mp-107">
          <mxGeometry x="-1174" y="-408.5" width="100" height="100" as="geometry">
            <mxPoint x="-1191" y="-370" as="sourcePoint" />
            <mxPoint x="-1091" y="-470" as="targetPoint" />
          </mxGeometry>
        </mxCell>
        <mxCell id="wED44z82WjqaJ6tav5Mp-190" style="edgeStyle=none;rounded=0;html=1;exitX=0.5;exitY=1;endArrow=none;endFill=0;jettySize=auto;orthogonalLoop=1;strokeColor=#736CA8;strokeWidth=2;fillColor=#64bbe2;fontSize=20;fontColor=#23445D;" edge="1" parent="1" source="wED44z82WjqaJ6tav5Mp-177" target="wED44z82WjqaJ6tav5Mp-177">
          <mxGeometry relative="1" as="geometry" />
        </mxCell>
        <mxCell id="wED44z82WjqaJ6tav5Mp-191" value="" style="edgeStyle=none;endArrow=none;strokeWidth=3;strokeColor=#64BBE2;html=1;rounded=0;" edge="1" parent="1" source="wED44z82WjqaJ6tav5Mp-1" target="wED44z82WjqaJ6tav5Mp-90">
          <mxGeometry x="-221.5" y="56.5" width="100" height="100" as="geometry">
            <mxPoint x="544" y="330.5" as="sourcePoint" />
            <mxPoint x="489" y="415.5" as="targetPoint" />
          </mxGeometry>
        </mxCell>
      </root>
    </mxGraphModel>
  </diagram>
  <diagram id="ZfKvnAFeuG5UaG1J760I" name="Page-3">
    <mxGraphModel dx="1461" dy="660" grid="1" gridSize="10" guides="1" tooltips="1" connect="1" arrows="1" fold="1" page="1" pageScale="1" pageWidth="850" pageHeight="1100" math="0" shadow="0">
      <root>
        <mxCell id="0" />
        <mxCell id="1" parent="0" />
      </root>
    </mxGraphModel>
  </diagram>
</mxfile>
